<svg width="18" height="18" viewBox="0 0 18 18" fill="none" xmlns="http://www.w3.org/2000/svg">
<g clip-path="url(#clip0_129_5118)">
<path d="M14.7825 3.2175L11.7825 0.2175C11.64 0.075 11.445 0 11.25 0H4.5C3.675 0 3 0.675 3 1.5V13.5C3 14.325 3.675 15 4.5 15H13.5C14.325 15 15 14.325 15 13.5V3.75C15 3.555 14.925 3.36 14.7825 3.2175ZM11.25 1.815L13.185 3.75H11.625C11.415 3.75 11.25 3.585 11.25 3.375V1.815ZM13.5 13.125C13.5 13.335 13.335 13.5 13.125 13.5H4.875C4.665 13.5 4.5 13.335 4.5 13.125V1.875C4.5 1.665 4.665 1.5 4.875 1.5H9.375C9.585 1.5 9.75 1.665 9.75 1.875V3.75C9.75 4.575 10.425 5.25 11.25 5.25H13.125C13.335 5.25 13.5 5.415 13.5 5.625V13.125Z" fill="#494C4E"/>
<path d="M18 12V15.7425C18 16.98 16.9875 18 15.75 18H2.25C1.0125 18 0.0075 16.9875 0 15.75V12C0 11.985 0 11.97 0.0075 11.955C0.0225 11.565 0.3525 11.25 0.75 11.25C1.1475 11.25 1.4775 11.565 1.4925 11.955C1.5 11.97 1.5 11.985 1.5 12V15C1.5075 15.825 2.1825 16.4925 3 16.4925H15C15.8175 16.4925 16.4925 15.825 16.5 15V12C16.5 11.985 16.5 11.97 16.5075 11.955C16.5225 11.565 16.8525 11.25 17.25 11.25C17.6475 11.25 17.9775 11.565 17.9925 11.955C18 11.97 18 11.985 18 12Z" fill="#494C4E"/>
<path d="M11.25 12H6.75C6.33525 12 6 11.6647 6 11.25C6 10.8352 6.33525 10.5 6.75 10.5H11.25C11.6648 10.5 12 10.8352 12 11.25C12 11.6647 11.6648 12 11.25 12ZM11.25 9H6.75C6.33525 9 6 8.66475 6 8.25C6 7.83525 6.33525 7.5 6.75 7.5H11.25C11.6648 7.5 12 7.83525 12 8.25C12 8.66475 11.6648 9 11.25 9ZM8.25 6H6.75C6.33525 6 6 5.66475 6 5.25C6 4.83525 6.33525 4.5 6.75 4.5H8.25C8.66475 4.5 9 4.83525 9 5.25C9 5.66475 8.66475 6 8.25 6Z" fill="#494C4E"/>
</g>
<defs>
<clipPath id="clip0_129_5118">
<rect width="18" height="18" fill="white"/>
</clipPath>
</defs>
</svg>
