<svg width="20" height="14" viewBox="0 0 20 14" fill="none" xmlns="http://www.w3.org/2000/svg">
<g clip-path="url(#clip0_140_3499)">
<path d="M3.93053 4.20794e-05H16.2613C16.4577 -0.00145208 16.6525 0.0368592 16.8337 0.112666C17.015 0.188472 17.179 0.300204 17.3159 0.441123C17.5948 0.734151 17.7816 1.10256 17.8531 1.50069L19.9689 12.0801C19.985 12.1616 19.9932 12.2445 19.9934 12.3275C19.9906 12.5076 19.9518 12.6853 19.8794 12.8502C19.8071 13.0151 19.7025 13.1639 19.5718 13.2878C19.3307 13.5247 19.0259 13.6865 18.6945 13.7533C18.5874 13.7752 18.4783 13.7861 18.369 13.7858H6.20267C6.16035 13.7858 6.11803 13.7858 6.07734 13.7858H0.945505C0.234242 13.7077 -0.0457063 13.1836 -0.000133338 12.4919L1.99043 2.40076C2.10761 1.94991 2.21666 1.47791 2.35501 1.09867C2.37764 1.02737 2.40651 0.958206 2.44127 0.891969L2.44941 0.875693C2.52047 0.737958 2.61336 0.612638 2.72448 0.504599C2.95997 0.271115 3.25681 0.10915 3.5806 0.037477C3.6956 0.0127199 3.81289 0.000172067 3.93053 4.20794e-05ZM7.89537 7.64978C7.08157 6.77576 8.32832 5.47693 9.22838 6.29887C9.54577 6.58858 10.008 7.01176 10.3286 7.29985L12.6822 4.37993C13.5448 3.49125 14.9022 4.79659 14.0526 5.69177L11.0676 9.27739C10.8971 9.45637 10.6639 9.56244 10.4169 9.57336C10.17 9.58428 9.92836 9.49922 9.74271 9.33598C9.21699 8.83468 8.44062 8.11365 7.89375 7.65141L7.89537 7.64978ZM16.2613 1.05961H3.93053C3.88842 1.05966 3.84643 1.06403 3.80521 1.07263C3.68221 1.10009 3.56942 1.16156 3.47968 1.25004C3.42069 1.30152 3.38394 1.37386 3.37715 1.45187C3.63268 4.16508 5.02916 9.16345 5.65579 12.0687C5.69024 12.2644 5.77876 12.4465 5.91133 12.5944C5.95037 12.6348 5.99717 12.6669 6.04891 12.6887C6.10066 12.7105 6.15628 12.7216 6.21243 12.7214H18.3918C18.4295 12.7209 18.4671 12.717 18.5041 12.71C18.6318 12.6841 18.7494 12.622 18.8426 12.531C18.9038 12.4765 18.9422 12.4009 18.9501 12.3194V12.2787L16.8342 1.69926C16.8035 1.50643 16.7176 1.32664 16.5868 1.18168C16.5473 1.14037 16.4998 1.10752 16.4472 1.08513C16.3946 1.06275 16.338 1.0513 16.2808 1.05147L16.2613 1.05961Z" fill="#323232"/>
</g>
<defs>
<clipPath id="clip0_140_3499">
<rect width="20" height="13.7826" fill="white"/>
</clipPath>
</defs>
</svg>
