<svg width="23" height="18" viewBox="0 0 23 18" fill="none" xmlns="http://www.w3.org/2000/svg">
<g clip-path="url(#clip0_140_3495)">
<path d="M21.6561 4.20205C21.6116 4.1307 21.5533 4.0689 21.4847 4.02026C21.4161 3.97161 21.3386 3.93709 21.2565 3.91869C21.1744 3.9003 21.0896 3.89839 21.0068 3.9131C20.924 3.9278 20.8449 3.95882 20.7742 4.00434C20.7035 4.04987 20.6425 4.10899 20.5949 4.17828C20.5472 4.24757 20.5138 4.32564 20.4966 4.40795C20.4794 4.49027 20.4787 4.57518 20.4946 4.65776C20.5105 4.74034 20.5427 4.81893 20.5892 4.88898C20.8012 5.21511 20.9847 5.55892 21.1376 5.91657C21.2036 6.0596 21.3203 6.17308 21.4651 6.23506C21.6099 6.29705 21.7725 6.30313 21.9215 6.25213C22.0706 6.20114 22.1954 6.09669 22.2719 5.95899C22.3483 5.82129 22.371 5.66012 22.3355 5.50666C22.3243 5.47484 22.3168 5.44489 22.3018 5.4112C22.1221 4.99019 21.906 4.58561 21.6561 4.20205ZM4.41919 12.6885L5.44491 15.3782L5.95964 13.9127L5.70695 13.6375C5.51977 13.3586 5.58154 13.0442 5.93343 12.988C6.05805 12.9789 6.18316 12.9789 6.30778 12.988C6.44711 12.9785 6.58707 12.9842 6.72518 13.0049C7.05273 13.076 7.08643 13.3923 6.92358 13.645L6.6709 13.9201L7.18563 15.3857L8.1215 12.696C8.7972 13.2894 10.5885 13.4129 11.3241 13.8228C12.0896 14.2514 12.2599 14.8747 12.3984 15.5897L12.507 15.6253C13.2688 15.9098 12.8813 17.0572 12.1064 16.8288C11.9736 16.7895 11.8369 16.7446 11.7078 16.6978C11.622 16.6663 11.5441 16.6165 11.4794 16.5518C11.4148 16.4872 11.365 16.4093 11.3334 16.3235H0C0.220866 15.3109 0.198405 14.3769 1.21476 13.8153C2.12069 13.3118 3.67798 13.3493 4.41919 12.6811V12.6885ZM4.23201 10.8861C4.14474 10.8919 4.05763 10.8724 3.9812 10.8299C3.87302 10.7644 3.78947 10.6651 3.74349 10.5473C3.63306 10.3002 3.54508 9.64883 3.82397 9.46352L3.77157 9.42983V9.35683C3.76033 9.22581 3.75846 9.06671 3.75472 8.902C3.74536 8.28994 3.73226 7.54873 3.22689 7.4046L2.99479 7.33535L3.13892 7.16315C3.51354 6.70122 3.93786 6.28192 4.40422 5.91282C4.82625 5.56277 5.32962 5.32461 5.86792 5.22028C6.12095 5.17974 6.37974 5.19402 6.62678 5.26216C6.87381 5.33029 7.10333 5.45069 7.2998 5.61522C7.43679 5.72717 7.5622 5.85258 7.67415 5.98957C7.89866 6.01341 8.11581 6.08342 8.31198 6.19519C8.50814 6.30696 8.67907 6.45808 8.81405 6.63906C8.98304 6.85774 9.10998 7.1059 9.18839 7.37091C9.26964 7.63877 9.30384 7.91868 9.28947 8.19822C9.2717 8.7047 9.05915 9.18477 8.69613 9.53839C8.76134 9.53895 8.82549 9.55499 8.8833 9.58519C9.09294 9.69375 9.10042 9.93333 9.04614 10.1336C8.98999 10.3002 8.92074 10.493 8.85897 10.6558C8.78035 10.8767 8.67179 10.9179 8.43783 10.8935C7.93245 13.1078 4.88151 13.1827 4.23201 10.8935V10.8861ZM13.2894 5.33633C13.2894 5.16258 13.3584 4.99595 13.4813 4.87309C13.6041 4.75024 13.7708 4.68122 13.9445 4.68122C14.1182 4.68122 14.2849 4.75024 14.4077 4.87309C14.5306 4.99595 14.5996 5.16258 14.5996 5.33633V9.31004L17.3211 10.5061C17.4792 10.5758 17.6032 10.7055 17.6656 10.8666C17.7281 11.0278 17.724 11.2071 17.6543 11.3652C17.5845 11.5233 17.4548 11.6473 17.2937 11.7097C17.1326 11.7722 16.9533 11.7681 16.7952 11.6984L13.7012 10.3451C13.5787 10.2967 13.4738 10.2123 13.4003 10.103C13.3268 9.99373 13.2881 9.86474 13.2894 9.73306V5.33633ZM20.5518 2.29848C20.5794 2.36766 20.5946 2.44116 20.5967 2.51561C20.624 2.68405 20.5894 2.8567 20.4993 3.00158C20.4091 3.14646 20.2695 3.25376 20.1063 3.30361L18.2196 3.88011C18.1296 3.91178 18.0342 3.9249 17.9391 3.91868C17.844 3.91245 17.7511 3.88702 17.666 3.8439C17.581 3.80078 17.5056 3.74088 17.4443 3.66781C17.3831 3.59474 17.3373 3.51002 17.3097 3.41876C17.2821 3.3275 17.2733 3.2316 17.2838 3.13684C17.2943 3.04207 17.3239 2.95042 17.3708 2.86742C17.4177 2.78441 17.4809 2.71177 17.5567 2.65387C17.6324 2.59598 17.7191 2.55404 17.8115 2.53058L17.9987 2.47443C16.3927 1.60295 14.5145 1.37762 12.7479 1.84449C10.9814 2.31135 9.45974 3.43517 8.49398 4.98631C8.42044 4.95806 8.34547 4.93369 8.26937 4.91331C8.21322 4.85903 8.15519 4.80662 8.08219 4.75609L8.0092 4.69245C7.82283 4.54469 7.61995 4.41907 7.40462 4.3181C7.74766 3.77039 8.15208 3.26361 8.61003 2.8076C9.91023 1.50632 11.6007 0.666472 13.4231 0.41636C15.2456 0.166248 17.0998 0.519627 18.7025 1.42251L18.5303 0.960186C18.4894 0.792993 18.5108 0.616629 18.5906 0.464121C18.6704 0.311614 18.8031 0.193422 18.9637 0.131681C19.1244 0.0699398 19.3021 0.068883 19.4635 0.128709C19.6248 0.188534 19.7589 0.305139 19.8405 0.456687L20.5443 2.29848H20.5518ZM14.5734 15.9323C14.6052 15.9293 14.6371 15.9293 14.6689 15.9323C14.7062 15.9293 14.7438 15.9293 14.7812 15.9323C15.169 15.9265 15.5555 15.8858 15.936 15.8106C15.978 15.8031 16.0206 15.7993 16.0633 15.7994C16.2194 15.8039 16.3683 15.8657 16.4818 15.9729C16.5953 16.0801 16.6654 16.2253 16.6788 16.3809C16.6922 16.5364 16.6479 16.6914 16.5545 16.8165C16.461 16.9415 16.3248 17.0279 16.1719 17.0591C15.7207 17.1458 15.263 17.1934 14.8036 17.2013C14.7657 17.2054 14.7274 17.2054 14.6895 17.2013C14.6512 17.2089 14.6124 17.2126 14.5734 17.2125C14.1796 17.2123 13.7863 17.1855 13.3961 17.1321C13.5226 16.9944 13.6144 16.8284 13.6635 16.648C13.7127 16.4675 13.7179 16.278 13.6787 16.0951L13.6338 15.8817C13.944 15.923 14.2567 15.9436 14.5697 15.9435L14.5734 15.9323ZM18.1147 15.0151C17.9636 15.0896 17.8482 15.221 17.794 15.3806C17.7397 15.5401 17.7511 15.7147 17.8256 15.8658C17.9 16.017 18.0315 16.1324 18.191 16.1866C18.3506 16.2408 18.5251 16.2295 18.6763 16.155C19.1051 15.9287 19.5097 15.659 19.8835 15.3502C20.0069 15.2525 20.0896 15.1125 20.1155 14.9573C20.1414 14.8021 20.1088 14.6428 20.0239 14.5103C19.939 14.3779 19.8079 14.2817 19.6561 14.2404C19.5042 14.1991 19.3425 14.2157 19.2022 14.287C19.1618 14.3073 19.1235 14.3318 19.0881 14.36C18.7849 14.6048 18.4618 14.824 18.1222 15.0151H18.1147ZM20.6191 12.6286C20.5295 12.7711 20.5002 12.9433 20.5376 13.1074C20.575 13.2716 20.676 13.4141 20.8185 13.5037C20.961 13.5933 21.1332 13.6226 21.2973 13.5852C21.4614 13.5479 21.6039 13.4468 21.6935 13.3043C21.9368 12.9158 22.1483 12.5083 22.3262 12.0858C22.3993 11.9351 22.4099 11.7615 22.3555 11.603C22.3012 11.4445 22.1863 11.314 22.0361 11.2398C21.8858 11.1657 21.7123 11.154 21.5535 11.2073C21.3946 11.2606 21.2633 11.3745 21.1881 11.5243C21.0226 11.9018 20.8351 12.2693 20.6266 12.6249L20.6191 12.6286ZM21.7048 9.33437C21.6955 9.41721 21.7027 9.50105 21.7259 9.5811C21.7491 9.66116 21.7878 9.73587 21.8399 9.80096C21.8919 9.86605 21.9563 9.92025 22.0293 9.96047C22.1023 10.0007 22.1825 10.0261 22.2653 10.0353C22.3482 10.0446 22.432 10.0374 22.5121 10.0142C22.5921 9.991 22.6668 9.95228 22.7319 9.90022C22.8634 9.79509 22.9477 9.64205 22.9663 9.47475C23.0094 9.00531 23.0094 8.53291 22.9663 8.06346C22.9524 7.89567 22.8724 7.74027 22.7439 7.63146C22.6155 7.52264 22.449 7.46932 22.2812 7.48322C22.1135 7.49712 21.9581 7.5771 21.8492 7.70557C21.7404 7.83405 21.6871 8.00049 21.701 8.16828C21.7328 8.55632 21.7328 8.94633 21.701 9.33437H21.7048Z" fill="#323232"/>
</g>
<defs>
<clipPath id="clip0_140_3495">
<rect width="23" height="17.2013" fill="white"/>
</clipPath>
</defs>
</svg>
