<svg width="18" height="18" viewBox="0 0 18 18" fill="none" xmlns="http://www.w3.org/2000/svg">
<g clip-path="url(#clip0_129_5135)">
<path fill-rule="evenodd" clip-rule="evenodd" d="M9 0C13.9706 0 18 4.02944 18 9C18 13.9706 13.9706 18 9 18C4.02944 18 0 13.9706 0 9C0 4.02944 4.02944 0 9 0ZM9 10.9688C8.56508 10.9688 8.2125 11.3213 8.2125 11.7562C8.2125 12.1912 8.56508 12.5437 9 12.5437C9.43492 12.5437 9.7875 12.1912 9.7875 11.7562C9.7875 11.3213 9.43492 10.9688 9 10.9688ZM9 5.0625C8.68934 5.0625 8.4375 5.31434 8.4375 5.625V9.5625C8.4375 9.87316 8.68934 10.125 9 10.125C9.31066 10.125 9.5625 9.87316 9.5625 9.5625V5.625C9.5625 5.31434 9.31066 5.0625 9 5.0625Z" fill="#292D32"/>
</g>
<defs>
<clipPath id="clip0_129_5135">
<rect width="18" height="18" fill="white"/>
</clipPath>
</defs>
</svg>
