<svg width="18" height="18" viewBox="0 0 18 18" fill="none" xmlns="http://www.w3.org/2000/svg">
<path d="M16.9849 4.83718C16.9381 4.7487 16.8582 4.68233 16.7627 4.65255C16.6671 4.62276 16.5637 4.63198 16.4749 4.6782C16.3861 4.72441 16.3192 4.80387 16.2888 4.89922C16.2584 4.99458 16.2669 5.09809 16.3125 5.18718C17.126 6.73992 17.4208 8.51239 17.1536 10.2448C16.8865 11.9773 16.0715 13.5786 14.8281 14.8142C11.6171 18.0248 6.39205 18.0258 3.17979 14.8139C3.12678 14.7609 3.05924 14.7248 2.98571 14.7102C2.91218 14.6956 2.83598 14.7031 2.76673 14.7318C2.69748 14.7605 2.63831 14.8091 2.5967 14.8715C2.55509 14.9338 2.5329 15.0071 2.53296 15.0821V17.2608C2.53296 17.3613 2.57288 17.4577 2.64395 17.5288C2.71501 17.5998 2.8114 17.6398 2.9119 17.6398C3.0124 17.6398 3.10879 17.5998 3.17986 17.5288C3.25092 17.4577 3.29084 17.3613 3.29084 17.2608V15.9379C4.89247 17.2542 6.89957 17.977 8.97272 17.9841C11.0459 17.9911 13.0578 17.2819 14.6683 15.9764C16.2788 14.6709 17.389 12.8492 17.8111 10.8195C18.2332 8.78975 17.9414 6.67652 16.9849 4.83718Z" fill="#292D32"/>
<path d="M3.1802 3.16625C6.39212 -0.0453331 11.6172 -0.044996 14.8285 3.16592C14.8814 3.219 14.9489 3.25516 15.0225 3.26983C15.096 3.28451 15.1722 3.27703 15.2415 3.24834C15.3108 3.21965 15.37 3.17104 15.4116 3.10868C15.4532 3.04632 15.4754 2.97301 15.4753 2.89803V0.719296C15.4753 0.618794 15.4354 0.522408 15.3643 0.451343C15.2932 0.380277 15.1969 0.340353 15.0964 0.340353C14.9959 0.340353 14.8995 0.380277 14.8284 0.451343C14.7573 0.522408 14.7174 0.618794 14.7174 0.719296V2.04224C11.1878 -0.864131 5.94318 -0.668601 2.64443 2.63015C1.28647 3.97932 0.39639 5.72801 0.104656 7.61989C-0.187078 9.51177 0.134874 11.4474 1.02332 13.1429C1.07012 13.2314 1.15002 13.2978 1.24557 13.3276C1.34113 13.3574 1.44458 13.3481 1.53336 13.3019C1.62215 13.2557 1.68904 13.1763 1.71946 13.0809C1.74987 12.9855 1.74133 12.882 1.69571 12.7929C0.88222 11.2403 0.58745 9.46784 0.854596 7.73543C1.12174 6.00303 1.93676 4.40174 3.1802 3.16625Z" fill="#292D32"/>
<path d="M4.04199 8.93485V13.1254C4.0428 13.3993 4.15198 13.6618 4.34569 13.8555C4.5394 14.0492 4.80189 14.1584 5.07584 14.1592H12.933C13.207 14.1584 13.4695 14.0493 13.6632 13.8556C13.8569 13.6618 13.9661 13.3993 13.9668 13.1254V8.93485C13.9661 8.6609 13.8569 8.39839 13.6632 8.20467C13.4695 8.01096 13.207 7.90179 12.933 7.901H5.07584C4.8019 7.90181 4.5394 8.011 4.3457 8.20471C4.15199 8.39841 4.04281 8.6609 4.04199 8.93485ZM11.7613 10.2204C11.9215 10.2204 12.078 10.2679 12.2112 10.3569C12.3444 10.4459 12.4481 10.5723 12.5094 10.7203C12.5707 10.8682 12.5867 11.031 12.5555 11.1881C12.5243 11.3452 12.4471 11.4895 12.3339 11.6027C12.2207 11.7159 12.0764 11.7931 11.9193 11.8243C11.7622 11.8555 11.5994 11.8395 11.4515 11.7782C11.3035 11.7169 11.1771 11.6132 11.0881 11.48C10.9991 11.3468 10.9516 11.1903 10.9516 11.0301C10.9518 10.8155 11.0372 10.6096 11.189 10.4578C11.3408 10.306 11.5467 10.2206 11.7613 10.2204ZM9.00442 10.2204C9.16457 10.2204 9.32112 10.2679 9.45427 10.3569C9.58743 10.4459 9.69121 10.5723 9.7525 10.7203C9.81378 10.8682 9.82982 11.031 9.79857 11.1881C9.76733 11.3452 9.69021 11.4895 9.57697 11.6027C9.46373 11.7159 9.31945 11.7931 9.16238 11.8243C9.00532 11.8555 8.84251 11.8395 8.69455 11.7782C8.5466 11.7169 8.42014 11.6132 8.33117 11.48C8.24219 11.3468 8.19471 11.1903 8.19471 11.0301C8.19491 10.8155 8.28029 10.6096 8.43209 10.4578C8.5839 10.306 8.78973 10.2206 9.00442 10.2204ZM6.2475 10.2204C6.40764 10.2204 6.56419 10.2679 6.69735 10.3569C6.83051 10.4459 6.93429 10.5723 6.99557 10.7203C7.05686 10.8682 7.07289 11.031 7.04165 11.1881C7.01041 11.3452 6.93329 11.4895 6.82005 11.6027C6.70681 11.7159 6.56253 11.7931 6.40546 11.8243C6.24839 11.8555 6.08559 11.8395 5.93763 11.7782C5.78967 11.7169 5.66322 11.6132 5.57424 11.48C5.48527 11.3468 5.43778 11.1903 5.43778 11.0301C5.43799 10.8155 5.52337 10.6096 5.67517 10.4578C5.82698 10.306 6.03281 10.2206 6.2475 10.2204Z" fill="#A9ABAD"/>
<path d="M12.3605 7.1428V5.76426C12.3605 4.87411 12.0069 4.02042 11.3775 3.391C10.7481 2.76157 9.89439 2.40796 9.00425 2.40796C8.1141 2.40796 7.26041 2.76157 6.63099 3.391C6.00156 4.02042 5.64795 4.87411 5.64795 5.76426V7.1428H6.40585V5.76426C6.40585 5.07511 6.67961 4.4142 7.16691 3.9269C7.6542 3.4396 8.31512 3.16584 9.00426 3.16584C9.6934 3.16584 10.3543 3.4396 10.8416 3.9269C11.3289 4.4142 11.6027 5.07511 11.6027 5.76426V7.1428H12.3605Z" fill="#A9ABAD"/>
</svg>
