<svg width="17" height="17" viewBox="0 0 17 17" fill="none" xmlns="http://www.w3.org/2000/svg">
<path d="M5.66675 7.08334H5.673" stroke="white" stroke-linecap="round" stroke-linejoin="round"/>
<path d="M8.5 7.08334H8.50625" stroke="white" stroke-linecap="round" stroke-linejoin="round"/>
<path d="M11.3333 7.08334H11.3395" stroke="white" stroke-linecap="round" stroke-linejoin="round"/>
<path d="M14.875 9.20833V4.95833C14.875 3.62269 14.875 2.95486 14.4601 2.53993C14.0451 2.125 13.3773 2.125 12.0417 2.125H4.95833C3.62269 2.125 2.95486 2.125 2.53993 2.53993C2.125 2.95486 2.125 3.62269 2.125 4.95833V9.20833C2.125 10.544 2.125 11.2118 2.53993 11.6267C2.95486 12.0417 3.62269 12.0417 4.95833 12.0417H5.3125C5.5081 12.0417 5.66667 12.2003 5.66667 12.3958V14.1667V14.2728C5.66667 14.5235 5.95097 14.6682 6.15365 14.5208L9.27605 12.25C9.4622 12.1146 9.68646 12.0417 9.91667 12.0417H12.0417C13.3773 12.0417 14.0451 12.0417 14.4601 11.6267C14.875 11.2118 14.875 10.544 14.875 9.20833Z" stroke="white" stroke-linejoin="round"/>
</svg>
