<svg width="15" height="15" viewBox="0 0 15 15" fill="none" xmlns="http://www.w3.org/2000/svg">
<path d="M5 6.25H5.00625" stroke="#050247" stroke-linecap="round" stroke-linejoin="round"/>
<path d="M7.5 6.25H7.50625" stroke="#050247" stroke-linecap="round" stroke-linejoin="round"/>
<path d="M10 6.25H10.0063" stroke="#050247" stroke-linecap="round" stroke-linejoin="round"/>
<path d="M13.125 8.125V4.375C13.125 3.19649 13.125 2.60723 12.7589 2.24112C12.3927 1.875 11.8035 1.875 10.625 1.875H4.375C3.19649 1.875 2.60723 1.875 2.24112 2.24112C1.875 2.60723 1.875 3.19649 1.875 4.375V8.125C1.875 9.3035 1.875 9.89275 2.24112 10.2589C2.60723 10.625 3.19649 10.625 4.375 10.625H4.6875C4.86009 10.625 5 10.7649 5 10.9375V12.5V12.5937C5 12.8148 5.25086 12.9426 5.42969 12.8125L8.18475 10.8088C8.349 10.6894 8.54688 10.625 8.75 10.625H10.625C11.8035 10.625 12.3927 10.625 12.7589 10.2589C13.125 9.89275 13.125 9.3035 13.125 8.125Z" stroke="#050247" stroke-linejoin="round"/>
</svg>
