<svg width="20" height="20" viewBox="0 0 20 20" fill="none" xmlns="http://www.w3.org/2000/svg">
<path d="M17.5 5L10 12.5L6.875 9.375" stroke="#050247" stroke-width="2" stroke-miterlimit="10"/>
<path d="M16.6875 8.4375C16.8125 8.9375 16.875 9.4375 16.875 10C16.875 13.8125 13.8125 16.875 10 16.875C6.1875 16.875 3.125 13.8125 3.125 10C3.125 6.1875 6.1875 3.125 10 3.125C11.875 3.125 13.5625 3.875 14.75 5.0625L15.625 4.1875C14.1875 2.75 12.1875 1.875 10 1.875C5.5 1.875 1.875 5.5 1.875 10C1.875 14.5 5.5 18.125 10 18.125C14.5 18.125 18.125 14.5 18.125 10C18.125 9.125 18 8.25 17.6875 7.4375L16.6875 8.4375Z" fill="#050247"/>
</svg>
