<svg width="20" height="15" viewBox="0 0 20 15" fill="none" xmlns="http://www.w3.org/2000/svg">
<g clip-path="url(#clip0_131_3639)">
<path d="M1.14762 0H18.8527C19.1553 0.00299549 19.4446 0.125107 19.6579 0.339881C19.8711 0.554656 19.9912 0.8448 19.992 1.14746V13.3154C19.9937 13.5476 19.9244 13.7748 19.7935 13.9665C19.7699 14.0279 19.7332 14.0834 19.686 14.1292C19.6543 14.1596 19.6181 14.1848 19.5786 14.2041C19.3733 14.3774 19.1133 14.4725 18.8446 14.4727H1.14762C0.846376 14.4697 0.558306 14.3487 0.345282 14.1357C0.132257 13.9227 0.011269 13.6346 0.00830078 13.3333V1.14746C0.00914214 0.8448 0.129191 0.554656 0.342443 0.339881C0.555694 0.125107 0.844976 0.00299549 1.14762 0ZM1.0988 12.832L7.08512 6.61133L1.0988 1.55273V12.832ZM7.98682 7.3877L1.59033 13.5824H18.3547L12.243 7.3877L10.4526 8.88672C10.3737 8.95224 10.2744 8.9881 10.1719 8.9881C10.0693 8.9881 9.97001 8.95224 9.89111 8.88672L7.98682 7.3877ZM13.13 6.59994L18.9015 12.8825V1.4974L13.13 6.59994ZM1.66195 0.880534L10.1548 7.76367L18.2733 0.880534H1.66195Z" fill="#1E1E1E"/>
</g>
<defs>
<clipPath id="clip0_131_3639">
<rect width="20" height="14.4629" fill="white"/>
</clipPath>
</defs>
</svg>
