<svg width="15" height="15" viewBox="0 0 15 15" fill="none" xmlns="http://www.w3.org/2000/svg">
<g clip-path="url(#clip0_9_260)">
<path d="M15 -1.5H0V13.5H15V-1.5Z" fill="white"/>
<path fill-rule="evenodd" clip-rule="evenodd" d="M5.36618 1.4477C7.20831 0.609961 9.45587 0.947667 10.9726 2.46444L12.8487 4.34055C12.8676 4.3594 12.8862 4.37803 12.9047 4.39647C13.1592 4.65027 13.3789 4.8695 13.5118 5.11925C13.8047 5.66987 13.8047 6.33012 13.5118 6.88069C13.3789 7.13044 13.1592 7.34969 12.9047 7.60344C12.8862 7.62194 12.8676 7.64056 12.8487 7.65937L12.8162 7.69194C12.5722 7.936 12.1764 7.936 11.9324 7.69194C11.6882 7.44781 11.6882 7.05212 11.9324 6.80806L11.9649 6.7755C12.3076 6.43275 12.3755 6.35519 12.4083 6.29356C12.5059 6.11 12.5059 5.88994 12.4083 5.70637C12.3755 5.64475 12.3076 5.56719 11.9649 5.22444L10.0887 3.34832C8.95237 2.21196 7.26694 1.9565 5.88364 2.58557C5.56942 2.72846 5.19887 2.58958 5.05597 2.27537C4.91309 1.96115 5.05197 1.5906 5.36618 1.4477Z" fill="#323232"/>
<path fill-rule="evenodd" clip-rule="evenodd" d="M1.48877 1.32249C1.70069 1.05002 2.09337 1.00094 2.36583 1.21286L13.6158 9.96287C13.8883 10.1747 13.9374 10.5674 13.7254 10.8399C13.5136 11.1124 13.1209 11.1615 12.8484 10.9496L10.9978 9.51025L10.9725 9.53556C9.01994 11.4882 5.85408 11.4882 3.90147 9.53556L2.54655 8.18062C2.15475 7.78887 1.81717 7.45131 1.58319 7.14469C1.33244 6.816 1.14258 6.4505 1.14258 6C1.14258 5.5495 1.33244 5.184 1.58319 4.85537C1.81717 4.54869 2.15475 4.21114 2.54655 3.81939L3.0429 3.32304L1.59841 2.19955C1.32594 1.98763 1.27685 1.59496 1.48877 1.32249ZM7.97288 7.1575L9.02844 7.9785C8.60588 8.30543 8.07563 8.5 7.5 8.5C6.11929 8.5 5 7.38075 5 6C5 5.6465 5.07338 5.31012 5.20574 5.00525L6.26194 5.82675C6.25407 5.88337 6.25 5.94125 6.25 6C6.25 6.69037 6.80963 7.25 7.5 7.25C7.66738 7.25 7.827 7.21712 7.97288 7.1575Z" fill="#323232"/>
</g>
<defs>
<clipPath id="clip0_9_260">
<rect width="15" height="15" fill="white"/>
</clipPath>
</defs>
</svg>
