<svg width="20" height="20" viewBox="0 0 20 20" fill="none" xmlns="http://www.w3.org/2000/svg">
<g clip-path="url(#clip0_132_3651)">
<path fill-rule="evenodd" clip-rule="evenodd" d="M20 10C20 4.47715 15.5228 0 10 0C4.47715 0 0 4.47715 0 10C0 14.9912 3.65686 19.1283 8.4375 19.8785V12.8907H5.89843V10H8.4375V7.79687C8.4375 5.29062 9.93042 3.90625 12.2147 3.90625C13.3088 3.90625 14.4532 4.10157 14.4532 4.10157V6.5625H13.1922C11.9499 6.5625 11.5625 7.33334 11.5625 8.12416V10H14.3359L13.8926 12.8907H11.5625V19.8785C16.3432 19.1283 20 14.9912 20 10Z" fill="#292D32"/>
</g>
<defs>
<clipPath id="clip0_132_3651">
<rect width="20" height="20" fill="white"/>
</clipPath>
</defs>
</svg>
