<svg width="20" height="20" viewBox="0 0 20 20" fill="none" xmlns="http://www.w3.org/2000/svg">
<path opacity="0.4" d="M18.3334 6.50829V12.6333C18.0917 12.5166 17.8251 12.4333 17.5251 12.3833L17.2667 12.3416L17.0501 11.8916C16.5917 10.9583 15.8417 10.4166 15.0001 10.4166C14.1584 10.4166 13.4084 10.9583 12.9501 11.8916L12.7251 12.3416L12.4751 12.3833C11.4834 12.55 10.7667 13.1 10.5084 13.8833C10.2584 14.675 10.5167 15.5416 11.2251 16.2583L11.4834 16.5166L11.4584 16.6166C11.2917 17.3583 11.3584 17.925 11.5167 18.3333H6.50841C3.47508 18.3333 1.66675 16.525 1.66675 13.4916V6.50829C1.66675 3.47496 3.47508 1.66663 6.50841 1.66663H13.4917C16.5251 1.66663 18.3334 3.47496 18.3334 6.50829Z" fill="#292D32"/>
<path d="M15.9333 12.45L16.2 12.9916C16.3333 13.2583 16.675 13.5083 16.9583 13.5583L17.3167 13.6166C18.4083 13.7999 18.6583 14.6 17.8833 15.3833L17.55 15.7166C17.325 15.9416 17.2083 16.3749 17.275 16.6916L17.3167 16.8916C17.6167 18.2083 16.9167 18.7166 15.775 18.025L15.5333 17.8749C15.2417 17.7 14.7583 17.7 14.4667 17.8749L14.225 18.025C13.075 18.7166 12.3833 18.2083 12.6833 16.8916L12.725 16.6916C12.7917 16.3833 12.675 15.9416 12.45 15.7166L12.1167 15.3833C11.3417 14.5916 11.5917 13.7999 12.6833 13.6166L13.0417 13.5583C13.3333 13.5083 13.6667 13.2583 13.8 12.9916L14.0667 12.45C14.5833 11.4083 15.4167 11.4083 15.9333 12.45Z" fill="#292D32"/>
<path fill-rule="evenodd" clip-rule="evenodd" d="M13.4414 6.59749C13.7142 6.80897 13.764 7.20156 13.5525 7.47438L11.6238 9.96246C11.1281 10.5894 10.214 10.7037 9.57642 10.211L9.572 10.2076L8.04988 9.00988C7.95584 8.93846 7.82468 8.95621 7.75326 9.04838C7.7532 9.04846 7.75333 9.04829 7.75326 9.04838L5.77033 11.6229C5.5597 11.8963 5.16726 11.9472 4.8938 11.7366C4.62033 11.526 4.5694 11.1335 4.78002 10.86L6.76397 8.28431C7.25889 7.64382 8.17657 7.52805 8.81567 8.02191L8.82 8.02528L10.3422 9.22304C10.4372 9.29521 10.5711 9.27663 10.642 9.18871L12.5646 6.70855C12.7761 6.43573 13.1687 6.38602 13.4414 6.59749Z" fill="#292D32"/>
</svg>
