<svg width="25" height="19" viewBox="0 0 25 19" fill="none" xmlns="http://www.w3.org/2000/svg">
<path d="M24.9844 8.41075C24.816 6.34548 23.1476 4.70863 21.0034 4.53179C18.8813 4.35705 17.5634 5.46758 16.9623 6.1518C16.757 6.38548 16.4002 6.38548 16.1949 6.1518C15.5939 5.46758 14.276 4.35705 12.1539 4.53179C10.0097 4.70863 8.34123 6.34548 8.17281 8.41075C7.98228 10.7539 9.57281 12.7487 11.0981 14.256C12.6349 15.775 14.4118 17.1213 16.3318 18.1371C16.4855 18.2181 16.6718 18.2181 16.8255 18.1371C18.7455 17.1213 20.5223 15.775 22.0592 14.256C23.5844 12.7487 25.175 10.7539 24.9844 8.41075Z" fill="#0B1719"/>
<path d="M7.12437 8.32549C7.3349 5.73917 9.41385 3.70232 12.0675 3.48337C12.2486 3.46864 12.4254 3.46127 12.597 3.46127C12.6054 3.46127 12.6139 3.46127 12.6223 3.46127C12.6349 3.28443 12.6349 3.10548 12.6202 2.92337C12.4939 1.37389 11.2433 0.146522 9.6349 0.0138899C8.04332 -0.117689 7.0549 0.715997 6.60437 1.22863C6.45068 1.40442 6.18332 1.40442 6.02858 1.22863C5.57805 0.715997 4.58963 -0.117689 2.99699 0.0138899C1.38962 0.146522 0.138036 1.37389 0.0117201 2.92337C-0.131438 4.68022 1.06225 6.17706 2.20541 7.30654C3.35804 8.44549 4.69068 9.45602 6.13068 10.2181C6.24542 10.2792 6.38542 10.2792 6.50121 10.2181C6.73595 10.0939 6.96753 9.96234 7.19595 9.82549C7.11174 9.34549 7.08226 8.84444 7.12437 8.32549Z" fill="#555D5E"/>
</svg>
