<svg width="15" height="20" viewBox="0 0 15 20" fill="none" xmlns="http://www.w3.org/2000/svg">
<g clip-path="url(#clip0_122_4263)">
<path fill-rule="evenodd" clip-rule="evenodd" d="M10.8615 5.02532C10.8791 5.03375 10.895 5.04528 10.9085 5.05936L10.9198 5.07071C11.1156 5.21648 11.2878 5.39143 11.4305 5.58946C11.5117 5.70241 11.5697 5.83034 11.6011 5.96585C11.6326 6.10136 11.6368 6.24177 11.6137 6.37893C11.5943 6.50228 11.5454 6.6191 11.471 6.71937C11.416 6.79104 11.3504 6.8539 11.2765 6.90579C11.2765 7.0063 11.2765 7.10356 11.2765 7.19921C11.2765 7.32403 11.2765 7.4521 11.2894 7.58341C11.3056 7.8898 11.351 8.20105 11.3964 8.50743C11.4533 8.76203 11.4912 9.02049 11.5099 9.2807C11.5466 9.64159 11.485 10.0057 11.3316 10.3344C11.2535 10.4771 11.1347 10.5934 10.9904 10.6684C10.8461 10.7435 10.6827 10.7739 10.521 10.7559C10.0623 10.7559 9.77857 10.49 9.65051 10.0134C9.58432 9.75971 9.56184 9.49657 9.58404 9.23531C9.62133 8.66468 9.72508 8.36478 9.63268 7.76011C9.60307 7.54247 9.53962 7.33079 9.44463 7.13274C9.36459 6.95445 9.21883 6.81392 9.03773 6.74044V10.8434C9.09289 10.8708 9.14326 10.9069 9.18687 10.9504C9.28953 11.0527 9.34777 11.1913 9.34898 11.3362V11.7237C9.34898 11.771 9.3302 11.8163 9.29675 11.8498C9.26331 11.8832 9.21796 11.902 9.17066 11.902H4.61376C4.56647 11.902 4.52111 11.8832 4.48767 11.8498C4.45423 11.8163 4.43544 11.771 4.43544 11.7237V11.3362C4.4364 11.2422 4.46132 11.15 4.50784 11.0683C4.55436 10.9866 4.62094 10.9182 4.7013 10.8694V4.66057C4.70173 4.41091 4.8011 4.17159 4.97764 3.99505C5.15418 3.81851 5.39349 3.71915 5.64316 3.71872H8.09101C8.34184 3.71957 8.58214 3.81959 8.7595 3.99695C8.93686 4.17431 9.03688 4.41461 9.03773 4.66544V6.37407C9.19611 6.41098 9.34379 6.48404 9.46922 6.58753C9.59466 6.69103 9.69443 6.82215 9.76074 6.97063C9.87745 7.22067 9.95352 7.48772 9.98607 7.76173C10.0979 8.57228 9.98607 8.47501 9.9342 9.24017C9.9123 9.46699 9.93096 9.69589 9.98932 9.91617C10.072 10.2258 10.2454 10.3928 10.5243 10.4025C10.6203 10.415 10.718 10.3986 10.8046 10.3552C10.8912 10.3119 10.963 10.2437 11.0106 10.1593C11.1291 9.88772 11.1749 9.58996 11.1435 9.29529C11.1234 9.04892 11.0872 8.80415 11.0349 8.56255C10.9879 8.24968 10.9409 7.93519 10.9231 7.60286C10.9231 7.47317 10.9117 7.34024 10.9117 7.20245C10.9117 7.09384 10.9117 6.98522 10.9117 6.87823C10.6253 6.6589 10.4164 6.35395 10.3152 6.0077C10.2861 5.86996 10.2885 5.72742 10.3222 5.59072C10.3558 5.45403 10.4199 5.3267 10.5097 5.21823C10.3701 5.12162 10.2213 5.03909 10.0655 4.97182C9.93403 4.90143 9.79051 4.85633 9.6424 4.83889C9.59597 4.83137 9.55443 4.80571 9.52691 4.76755C9.4994 4.7294 9.48817 4.68188 9.49569 4.63545C9.50322 4.58901 9.52888 4.54747 9.56703 4.51996C9.60519 4.49244 9.65271 4.48121 9.69914 4.48874C9.87666 4.51178 10.0485 4.5667 10.2065 4.65085C10.4391 4.74897 10.659 4.87469 10.8615 5.02532ZM7.7214 18.7544C8.70019 18.1231 9.59232 17.3667 10.3751 16.5043C12.034 14.6979 13.1841 12.4839 13.7081 10.088C14.1636 7.87196 13.9513 5.71104 12.9365 4.03483C12.6433 3.55005 12.2819 3.11 11.8633 2.72823C10.6361 1.60967 9.24037 1.07471 7.81867 1.06336C6.33375 1.05039 4.82613 1.62102 3.49358 2.67473C2.94362 3.10919 2.47069 3.6331 2.09458 4.2245C1.15921 5.69807 0.877136 7.52667 1.18514 9.44118C1.49964 11.3865 2.42852 13.4307 3.90372 15.2771C4.98722 16.6263 6.2754 17.7974 7.7214 18.7479V18.7544ZM11.163 17.2208C10.247 18.2293 9.19252 19.1026 8.03103 19.8146C7.94431 19.8784 7.84035 19.9145 7.73276 19.9183C7.62517 19.922 7.51895 19.8932 7.42798 19.8357C5.76947 18.7892 4.29637 17.4744 3.06886 15.945C1.48018 13.9495 0.475104 11.7302 0.134674 9.60654C-0.215483 7.43913 0.113599 5.34954 1.19325 3.65225C1.63402 2.96096 2.18744 2.34836 2.83056 1.83987C4.35277 0.627287 6.09544 -0.014667 7.8284 -7.71522e-05C9.49975 0.0145127 11.1516 0.637014 12.5798 1.94524C13.0737 2.39685 13.5001 2.91714 13.8459 3.49014C15.0066 5.40304 15.2595 7.83954 14.7505 10.3069C14.1889 12.8908 12.9509 15.2791 11.163 17.2273V17.2208ZM8.87562 11.1628H4.90718C4.88533 11.1725 4.86552 11.1862 4.84882 11.2033C4.83064 11.2207 4.81623 11.2415 4.80647 11.2647C4.7967 11.2878 4.79181 11.3127 4.79208 11.3379V11.547H8.99234V11.3379C8.99145 11.2874 8.97113 11.2392 8.9356 11.2033C8.91845 11.186 8.89807 11.1722 8.87562 11.1628ZM5.8539 4.53899H7.91756C7.96884 4.5389 8.01962 4.54903 8.06694 4.56879C8.11426 4.58856 8.15716 4.61755 8.19314 4.65409L8.20611 4.66868C8.27083 4.73955 8.30669 4.83208 8.30662 4.92805V6.24438C8.30683 6.29554 8.29692 6.34622 8.27744 6.39353C8.25796 6.44082 8.22931 6.4838 8.19314 6.51997C8.12005 6.59317 8.021 6.63454 7.91756 6.63507H5.8539C5.75102 6.63411 5.65263 6.59278 5.57994 6.51997C5.54396 6.48399 5.51542 6.44128 5.49595 6.39427C5.47648 6.34727 5.46646 6.29688 5.46646 6.246V4.91995C5.46646 4.86907 5.47648 4.81869 5.49595 4.77168C5.51542 4.72467 5.54396 4.68196 5.57994 4.64598L5.59615 4.63139C5.66743 4.56733 5.75969 4.53158 5.85552 4.53089L5.8539 4.53899Z" fill="#604ADB"/>
</g>
<defs>
<clipPath id="clip0_122_4263">
<rect width="15" height="19.92" fill="white"/>
</clipPath>
</defs>
</svg>
