<svg width="23" height="23" viewBox="0 0 23 23" fill="none" xmlns="http://www.w3.org/2000/svg">
<circle cx="11.5" cy="11.5" r="11.5" fill="#323232"/>
<path d="M17.1484 5.85159C16.9994 5.70368 16.8125 5.59969 16.6084 5.55107C16.4042 5.50245 16.1904 5.51106 15.9908 5.57597L4.47014 9.41883C4.25647 9.48652 4.06767 9.61603 3.92756 9.79098C3.78746 9.96592 3.70234 10.1785 3.68296 10.4018C3.66358 10.6251 3.7108 10.8491 3.81867 11.0455C3.92655 11.242 4.09021 11.4021 4.28902 11.5057L9.06896 13.8681L11.4314 18.6638C11.5263 18.8514 11.6716 19.0091 11.851 19.1189C12.0304 19.2288 12.2369 19.2866 12.4472 19.2859H12.526C12.7512 19.2692 12.9663 19.1853 13.1432 19.0448C13.3202 18.9044 13.4508 18.714 13.5182 18.4984L17.4161 7.00917C17.4858 6.81067 17.4976 6.59649 17.4502 6.39155C17.4028 6.18662 17.2981 5.99937 17.1484 5.85159ZM4.95837 10.5055L15.0144 7.15091L9.4312 12.7341L4.95837 10.5055ZM12.5023 18.0416L10.2659 13.5688L15.8491 7.98563L12.5023 18.0416Z" fill="white"/>
</svg>
