<svg width="20" height="20" viewBox="0 0 20 20" fill="none" xmlns="http://www.w3.org/2000/svg">
<path fill-rule="evenodd" clip-rule="evenodd" d="M1.6665 10C1.6665 5.39765 5.39746 1.66669 9.99984 1.66669C14.6022 1.66669 18.3332 5.39765 18.3332 10C18.3332 14.6024 14.6022 18.3334 9.99984 18.3334C5.39746 18.3334 1.6665 14.6024 1.6665 10ZM9.99984 7.50002C9.75109 7.50002 9.5285 7.60799 9.37459 7.78237C9.07009 8.12743 8.54342 8.16026 8.1984 7.85571C7.85334 7.55115 7.8205 7.02454 8.12505 6.67948C8.58192 6.16185 9.253 5.83335 9.99984 5.83335C11.3806 5.83335 12.4998 6.95265 12.4998 8.33335C12.4998 9.42269 11.8038 10.3476 10.8332 10.6909V10.8334C10.8332 11.2936 10.4601 11.6667 9.99984 11.6667C9.53959 11.6667 9.1665 11.2936 9.1665 10.8334V10.4167C9.1665 9.69035 9.73925 9.26002 10.2067 9.14102C10.5673 9.04919 10.8332 8.72127 10.8332 8.33335C10.8332 7.87312 10.4601 7.50002 9.99984 7.50002ZM9.99984 12.5C9.53959 12.5 9.1665 12.8731 9.1665 13.3334C9.1665 13.7936 9.53959 14.1667 9.99984 14.1667H10.0082C10.4684 14.1667 10.8415 13.7936 10.8415 13.3334C10.8415 12.8731 10.4684 12.5 10.0082 12.5H9.99984Z" fill="#323232"/>
</svg>
