<svg width="20" height="20" viewBox="0 0 20 20" fill="none" xmlns="http://www.w3.org/2000/svg">
<path fill-rule="evenodd" clip-rule="evenodd" d="M11.9931 0.757777C10.8564 -0.252592 9.14359 -0.252592 8.00689 0.757777L0.335652 7.57669C-0.0771372 7.94359 -0.114317 8.57569 0.252602 8.98849C0.619522 9.40119 1.25159 9.43839 1.66437 9.07149L2.00001 8.77319V14.3899C1.99996 15.2764 1.99992 16.0402 2.08215 16.6519C2.17028 17.3074 2.36903 17.9358 2.87869 18.4454C3.38835 18.9551 4.0167 19.1538 4.67222 19.242C5.28388 19.3242 6.04769 19.3241 6.93418 19.3241H13.0658C13.9523 19.3241 14.7161 19.3242 15.3278 19.242C15.9833 19.1538 16.6117 18.9551 17.1213 18.4454C17.631 17.9358 17.8297 17.3074 17.9179 16.6519C18.0001 16.0402 18.0001 15.2764 18 14.39V8.77319L18.3356 9.07149C18.7484 9.43839 19.3805 9.40119 19.7474 8.98849C20.1143 8.57569 20.0772 7.94359 19.6644 7.57669L11.9931 0.757777ZM9.99999 13.3241C9.44769 13.3241 8.99999 13.7718 8.99999 14.3241V16.3241C8.99999 16.8764 8.55229 17.3241 7.99999 17.3241C7.44771 17.3241 6.99999 16.8764 6.99999 16.3241V14.3241C6.99999 12.6672 8.34309 11.3241 9.99999 11.3241C11.6569 11.3241 13 12.6672 13 14.3241V16.3241C13 16.8764 12.5523 17.3241 12 17.3241C11.4477 17.3241 11 16.8764 11 16.3241V14.3241C11 13.7718 10.5523 13.3241 9.99999 13.3241Z" fill="#050247"/>
</svg>
