<svg width="20" height="20" viewBox="0 0 20 20" fill="none" xmlns="http://www.w3.org/2000/svg">
<path opacity="0.4" d="M13.4915 1.66663H6.50817C3.47484 1.66663 1.6665 3.47496 1.6665 6.50829V13.4833C1.6665 16.525 3.47484 18.3333 6.50817 18.3333H13.4832C16.5165 18.3333 18.3248 16.525 18.3248 13.4916V6.50829C18.3332 3.47496 16.5248 1.66663 13.4915 1.66663Z" fill="#292D32"/>
<path d="M9.99941 13.2334C11.7852 13.2334 13.2327 11.7858 13.2327 10C13.2327 8.21433 11.7852 6.76672 9.99941 6.76672C8.21373 6.76672 6.76611 8.21433 6.76611 10C6.76611 11.7858 8.21373 13.2334 9.99941 13.2334Z" fill="#292D32"/>
<path d="M14.1668 6.24992C13.9418 6.24992 13.7335 6.16659 13.5752 6.00825C13.5002 5.92492 13.4418 5.83325 13.4002 5.73325C13.3585 5.63325 13.3335 5.52492 13.3335 5.41659C13.3335 5.30825 13.3585 5.19992 13.4002 5.09992C13.4418 4.99159 13.5002 4.90825 13.5752 4.82492C13.7668 4.63325 14.0585 4.54159 14.3252 4.59992C14.3835 4.60825 14.4335 4.62492 14.4835 4.64992C14.5335 4.66659 14.5835 4.69159 14.6335 4.72492C14.6752 4.74992 14.7168 4.79159 14.7585 4.82492C14.8335 4.90825 14.8918 4.99159 14.9335 5.09992C14.9752 5.19992 15.0002 5.30825 15.0002 5.41659C15.0002 5.52492 14.9752 5.63325 14.9335 5.73325C14.8918 5.83325 14.8335 5.92492 14.7585 6.00825C14.6752 6.08325 14.5835 6.14159 14.4835 6.18325C14.3835 6.22492 14.2752 6.24992 14.1668 6.24992Z" fill="#292D32"/>
</svg>
