<svg width="36" height="36" viewBox="0 0 36 36" fill="none" xmlns="http://www.w3.org/2000/svg">
<path fill-rule="evenodd" clip-rule="evenodd" d="M15.4136 5.71436C14.2774 5.71436 13.2318 6.361 12.7237 7.37725L12.3278 8.1715H9.40031C7.3793 8.1715 5.7146 9.8362 5.7146 11.8572V24.1429C5.7146 26.1639 7.3793 27.8286 9.40031 27.8286H26.6003C28.6213 27.8286 30.286 26.1639 30.286 24.1429V11.8572C30.286 9.8362 28.6213 8.1715 26.6003 8.1715H23.6729L23.2769 7.37725C22.7688 6.361 21.7232 5.71436 20.587 5.71436H15.4136ZM15.4136 8.1715H20.587C20.7977 8.1715 20.9847 8.28784 21.0789 8.47624L21.8156 9.94957C21.9177 10.1536 22.0745 10.3252 22.2687 10.4452C22.4628 10.5651 22.6864 10.6287 22.9146 10.6286H26.6003C27.2934 10.6286 27.8289 11.1641 27.8289 11.8572V24.1429C27.8289 24.836 27.2934 25.3715 26.6003 25.3715H9.40031C8.70724 25.3715 8.17174 24.836 8.17174 24.1429V11.8572C8.17174 11.1641 8.70724 10.6286 9.40031 10.6286H13.086C13.3142 10.6287 13.5379 10.5651 13.732 10.4452C13.9261 10.3252 14.083 10.1536 14.185 9.94957L14.9217 8.47624C15.0159 8.28778 15.2029 8.1715 15.4136 8.1715Z" fill="#1E1E1E"/>
<path fill-rule="evenodd" clip-rule="evenodd" d="M2.02862 0.800049C1.70279 0.800081 1.39032 0.929531 1.15993 1.15993C0.929531 1.39032 0.800081 1.70279 0.800049 2.02862V6.94291C0.800049 7.26874 0.929486 7.58124 1.15989 7.81164C1.39029 8.04204 1.70278 8.17148 2.02862 8.17148C2.35446 8.17148 2.66695 8.04204 2.89735 7.81164C3.12775 7.58124 3.25719 7.26874 3.25719 6.94291V3.25719H6.94291C7.26874 3.25719 7.58124 3.12775 7.81164 2.89735C8.04204 2.66695 8.17148 2.35446 8.17148 2.02862C8.17148 1.70278 8.04204 1.39029 7.81164 1.15989C7.58124 0.929486 7.26874 0.800049 6.94291 0.800049H2.02862Z" fill="#1E1E1E"/>
<path fill-rule="evenodd" clip-rule="evenodd" d="M2.02886 27.8286C1.70303 27.8286 1.39053 27.9581 1.16013 28.1885C0.92973 28.4189 0.800293 28.7313 0.800293 29.0572V33.9715C0.800326 34.2973 0.929775 34.6098 1.16017 34.8402C1.39056 35.0706 1.70304 35.2 2.02886 35.2H6.94315C7.26899 35.2 7.58148 35.0706 7.81188 34.8402C8.04228 34.6098 8.17172 34.2973 8.17172 33.9715C8.17172 33.6456 8.04228 33.3331 7.81188 33.1027C7.58148 32.8723 7.26899 32.7429 6.94315 32.7429H3.25744V29.0572C3.25744 28.7313 3.128 28.4189 2.8976 28.1885C2.66719 27.9581 2.3547 27.8286 2.02886 27.8286Z" fill="#1E1E1E"/>
<path fill-rule="evenodd" clip-rule="evenodd" d="M29.0574 0.800049C28.7316 0.800049 28.4191 0.929486 28.1887 1.15989C27.9583 1.39029 27.8289 1.70278 27.8289 2.02862C27.8289 2.35446 27.9583 2.66695 28.1887 2.89735C28.4191 3.12775 28.7316 3.25719 29.0574 3.25719H32.7431V6.94291C32.7431 7.26874 32.8726 7.58124 33.103 7.81164C33.3334 8.04204 33.6459 8.17148 33.9717 8.17148C34.2976 8.17148 34.61 8.04204 34.8404 7.81164C35.0708 7.58124 35.2003 7.26874 35.2003 6.94291V2.02862C35.2003 1.70279 35.0708 1.39032 34.8404 1.15993C34.61 0.929531 34.2975 0.800081 33.9717 0.800049H29.0574Z" fill="#1E1E1E"/>
<path fill-rule="evenodd" clip-rule="evenodd" d="M33.9717 27.8286C33.6459 27.8286 33.3334 27.9581 33.103 28.1885C32.8726 28.4189 32.7431 28.7313 32.7431 29.0572V32.7429H29.0574C28.7316 32.7429 28.4191 32.8723 28.1887 33.1027C27.9583 33.3331 27.8289 33.6456 27.8289 33.9715C27.8289 34.2973 27.9583 34.6098 28.1887 34.8402C28.4191 35.0706 28.7316 35.2 29.0574 35.2H33.9717C34.2975 35.2 34.61 35.0706 34.8404 34.8402C35.0708 34.6098 35.2003 34.2973 35.2003 33.9715V29.0572C35.2003 28.7313 35.0708 28.4189 34.8404 28.1885C34.61 27.9581 34.2976 27.8286 33.9717 27.8286Z" fill="#1E1E1E"/>
<path fill-rule="evenodd" clip-rule="evenodd" d="M18.0002 13.0858C15.3007 13.0858 13.0859 15.3006 13.0859 18.0001C13.0859 20.6996 15.3007 22.9144 18.0002 22.9144C20.6998 22.9144 22.9145 20.6996 22.9145 18.0001C22.9145 15.3006 20.6998 13.0858 18.0002 13.0858ZM18.0002 15.543C19.3718 15.543 20.4574 16.6285 20.4574 18.0001C20.4574 19.3717 19.3718 20.4572 18.0002 20.4572C16.6286 20.4572 15.5431 19.3717 15.5431 18.0001C15.5431 16.6285 16.6286 15.543 18.0002 15.543Z" fill="#1E1E1E"/>
<path fill-rule="evenodd" clip-rule="evenodd" d="M24.1431 11.8578C23.8173 11.8578 23.5048 11.9872 23.2744 12.2176C23.044 12.448 22.9146 12.7605 22.9146 13.0864C22.9146 13.4122 23.044 13.7247 23.2744 13.9551C23.5048 14.1855 23.8173 14.3149 24.1431 14.3149C24.469 14.3149 24.7815 14.1855 25.0119 13.9551C25.2423 13.7247 25.3717 13.4122 25.3717 13.0864C25.3717 12.7605 25.2423 12.448 25.0119 12.2176C24.7815 11.9872 24.469 11.8578 24.1431 11.8578Z" fill="#1E1E1E"/>
</svg>
