<svg width="20" height="36" viewBox="0 0 20 36" fill="none" xmlns="http://www.w3.org/2000/svg">
<path d="M19.8295 17.0553C19.7506 16.9525 19.6492 16.8693 19.533 16.812C19.4169 16.7548 19.2891 16.725 19.1596 16.725L11.7811 16.7363L18.8593 9.18515C18.9401 9.09828 19.0019 8.99548 19.0407 8.88335C19.0795 8.77122 19.0944 8.65223 19.0845 8.534C19.0745 8.41549 19.0394 8.30048 18.9815 8.19661C18.9236 8.09274 18.8442 8.00241 18.7486 7.93164L16.174 5.99882C16.0766 5.92574 15.9645 5.87459 15.8455 5.84889C15.7264 5.82319 15.6033 5.82354 15.4844 5.84992C15.3655 5.8763 15.2537 5.92809 15.1567 6.00173C15.0597 6.07537 14.9798 6.16912 14.9224 6.27655L10.0885 15.312L6.1478 0.628228C6.1001 0.448133 5.99418 0.28887 5.84653 0.175242C5.69889 0.0616144 5.51782 0 5.33151 0C5.14521 0 4.96413 0.0616144 4.81649 0.175242C4.66885 0.28887 4.56293 0.448133 4.51523 0.628228L0.0284732 17.3743C-0.00485154 17.4995 -0.00898451 17.6307 0.0163927 17.7577C0.04177 17.8848 0.0959795 18.0043 0.174844 18.1071C0.253709 18.2099 0.355122 18.2932 0.471268 18.3506C0.587415 18.408 0.715194 18.438 0.844757 18.4383L7.87232 18.4289L0.773451 26.0025C0.692275 26.0892 0.630296 26.192 0.59156 26.3043C0.552824 26.4165 0.538202 26.5357 0.54865 26.654C0.559099 26.7723 0.594381 26.8871 0.652194 26.9908C0.710008 27.0945 0.789052 27.1849 0.884165 27.256L3.46625 29.1926C3.61255 29.302 3.79025 29.3612 3.97291 29.3615C4.03608 29.3623 4.0991 29.3554 4.16057 29.3408C4.27967 29.3149 4.39171 29.2634 4.48892 29.1898C4.58613 29.1162 4.66618 29.0224 4.72352 28.9149L9.56118 19.8719L13.6651 35.2087C13.7145 35.3888 13.8217 35.5477 13.9702 35.661C14.1187 35.7742 14.3003 35.8355 14.487 35.8355C14.6729 35.8354 14.8536 35.774 15.0009 35.6606C15.1482 35.5472 15.2538 35.3884 15.3015 35.2087L19.9702 17.789C20.0042 17.664 20.0092 17.533 19.9848 17.4058C19.9604 17.2787 19.9073 17.1588 19.8295 17.0553Z" fill="#604ADB"/>
</svg>
