<svg width="25" height="25" viewBox="0 0 25 25" fill="none" xmlns="http://www.w3.org/2000/svg">
<path d="M18.0134 14.8885C17.6067 15.2952 17.6067 15.9548 18.0134 16.3616C18.4202 16.7684 19.0798 16.7684 19.4866 16.3616L22.5209 13.3272C22.5366 13.3116 22.5518 13.2956 22.5664 13.2792C22.7812 13.0884 22.9167 12.81 22.9167 12.5C22.9167 12.19 22.7812 11.9117 22.5664 11.7209C22.5518 11.7045 22.5366 11.6885 22.5209 11.6729L19.4866 8.63847C19.0798 8.23168 18.4202 8.23168 18.0134 8.63847C17.6067 9.04527 17.6067 9.70481 18.0134 10.1116L19.3602 11.4584H13.5417C12.9664 11.4584 12.5 11.9247 12.5 12.5C12.5 13.0754 12.9664 13.5417 13.5417 13.5417H19.3602L18.0134 14.8885Z" fill="#323232"/>
<path d="M5.2085 2.08337C3.48261 2.08337 2.0835 3.48249 2.0835 5.20837V19.7917C2.0835 21.5176 3.48261 22.9167 5.2085 22.9167H15.1043C16.5426 22.9167 17.7085 21.7508 17.7085 20.3125V17.4298C17.5542 17.3407 17.409 17.2301 17.277 17.0982C16.5954 16.4165 16.4849 15.3801 16.9454 14.5834H13.5418C12.3912 14.5834 11.4585 13.6507 11.4585 12.5C11.4585 11.3494 12.3912 10.4167 13.5418 10.4167H16.9454C16.4849 9.61998 16.5954 8.58353 17.277 7.90191C17.409 7.76994 17.5542 7.65937 17.7085 7.57023V4.68754C17.7085 3.2493 16.5426 2.08337 15.1043 2.08337H5.2085Z" fill="#A9ABAD"/>
</svg>
