<svg width="25" height="25" viewBox="0 0 25 25" fill="none" xmlns="http://www.w3.org/2000/svg">
<g clip-path="url(#clip0_131_3487)">
<path d="M25 0H0V25H25V0Z" fill="white"/>
<path fill-rule="evenodd" clip-rule="evenodd" d="M7.29158 12.5C7.29158 11.9247 7.75796 11.4584 8.33325 11.4584H8.34367C8.91896 11.4584 9.38534 11.9247 9.38534 12.5C9.38534 13.0754 8.91896 13.5417 8.34367 13.5417H8.33325C7.75796 13.5417 7.29158 13.0754 7.29158 12.5ZM11.4583 12.5C11.4583 11.9247 11.9246 11.4584 12.4999 11.4584H12.5103C13.0856 11.4584 13.552 11.9247 13.552 12.5C13.552 13.0754 13.0856 13.5417 12.5103 13.5417H12.4999C11.9246 13.5417 11.4583 13.0754 11.4583 12.5ZM16.6666 11.4584C16.0913 11.4584 15.6249 11.9247 15.6249 12.5C15.6249 13.0754 16.0913 13.5417 16.6666 13.5417H16.677C17.2523 13.5417 17.7187 13.0754 17.7187 12.5C17.7187 11.9247 17.2523 11.4584 16.677 11.4584H16.6666ZM2.08325 12.5C2.08325 6.74707 6.74695 2.08337 12.4999 2.08337C18.2528 2.08337 22.9166 6.74707 22.9166 12.5C22.9166 18.253 18.2528 22.9167 12.4999 22.9167C6.74695 22.9167 2.08325 18.253 2.08325 12.5Z" fill="#323232"/>
</g>
<defs>
<clipPath id="clip0_131_3487">
<rect width="25" height="25" fill="white"/>
</clipPath>
</defs>
</svg>
