<svg width="15" height="15" viewBox="0 0 15 15" fill="none" xmlns="http://www.w3.org/2000/svg">
<path d="M6.25007 13.125H8.75007C8.75007 13.4565 8.61838 13.7745 8.38396 14.0089C8.14954 14.2433 7.83159 14.375 7.50007 14.375C7.16855 14.375 6.85061 14.2433 6.61619 14.0089C6.38177 13.7745 6.25007 13.4565 6.25007 13.125ZM1.92257 11.4894C1.87526 11.3751 1.86289 11.2494 1.88703 11.1282C1.91117 11.0069 1.97074 10.8955 2.0582 10.8081L3.12507 9.74125V6.25C3.12708 5.19906 3.507 4.1839 4.19547 3.38987C4.88394 2.59584 5.83502 2.0759 6.87507 1.925V1.25C6.87507 1.08424 6.94092 0.925268 7.05813 0.808058C7.17534 0.690848 7.33431 0.625 7.50007 0.625C7.66583 0.625 7.8248 0.690848 7.94201 0.808058C8.05922 0.925268 8.12507 1.08424 8.12507 1.25V1.925C9.16512 2.0759 10.1162 2.59584 10.8047 3.38987C11.4931 4.1839 11.8731 5.19906 11.8751 6.25V9.74125L12.9419 10.8081C13.0293 10.8955 13.0888 11.0069 13.1129 11.1281C13.137 11.2493 13.1247 11.375 13.0774 11.4892C13.0301 11.6033 12.95 11.7009 12.8472 11.7696C12.7445 11.8383 12.6237 11.875 12.5001 11.875H2.50007C2.37647 11.875 2.25563 11.8384 2.15284 11.7698C2.05005 11.7011 1.96991 11.6036 1.92257 11.4894ZM4.00882 10.625H10.9913L10.8082 10.4419C10.691 10.3247 10.6251 10.1657 10.6251 10V6.25C10.6251 5.4212 10.2958 4.62634 9.70978 4.04029C9.12373 3.45424 8.32887 3.125 7.50007 3.125C6.67127 3.125 5.87641 3.45424 5.29036 4.04029C4.70431 4.62634 4.37507 5.4212 4.37507 6.25V10C4.37504 10.1657 4.30917 10.3247 4.19195 10.4419L4.00882 10.625Z" fill="#1E1E1E"/>
</svg>
