<svg width="30" height="30" viewBox="0 0 30 30" fill="none" xmlns="http://www.w3.org/2000/svg">
<path d="M15 27.5C21.9036 27.5 27.5 21.9036 27.5 15C27.5 8.09644 21.9036 2.5 15 2.5C8.09644 2.5 2.5 8.09644 2.5 15C2.5 21.9036 8.09644 27.5 15 27.5Z" fill="#604ADB"/>
<path d="M18.4375 16.0375L14.4375 18.75C14.246 18.8763 14.0234 18.9475 13.794 18.9558C13.5647 18.964 13.3375 18.9089 13.1374 18.7966C12.9373 18.6843 12.772 18.519 12.6596 18.319C12.5472 18.119 12.492 17.8918 12.5 17.6625V12.3375C12.492 12.1082 12.5472 11.881 12.6596 11.681C12.772 11.481 12.9373 11.3157 13.1374 11.2034C13.3375 11.0911 13.5647 11.036 13.794 11.0442C14.0234 11.0525 14.246 11.1236 14.4375 11.25L18.4375 13.9125C18.6184 14.0246 18.7677 14.181 18.8712 14.367C18.9747 14.5529 19.0291 14.7622 19.0291 14.975C19.0291 15.1878 18.9747 15.3971 18.8712 15.583C18.7677 15.769 18.6184 15.9254 18.4375 16.0375Z" fill="white"/>
</svg>
