<svg width="20" height="20" viewBox="0 0 20 20" fill="none" xmlns="http://www.w3.org/2000/svg">
<path fill-rule="evenodd" clip-rule="evenodd" d="M11 7C11 6.44772 10.5523 6 10 6C9.4477 6 9 6.44772 9 7V9H7C6.44772 9 6 9.4477 6 10C6 10.5523 6.44772 11 7 11H9V13C9 13.5523 9.4477 14 10 14C10.5523 14 11 13.5523 11 13V11H13C13.5523 11 14 10.5523 14 10C14 9.4477 13.5523 9 13 9H11V7ZM5.25007 0.38782C6.54878 0.0992 8.1243 0 10 0C11.8757 0 13.4512 0.0992 14.7499 0.38782C16.06 0.67897 17.1488 1.176 17.9864 2.01358C18.824 2.85116 19.321 3.94002 19.6122 5.25007C19.9008 6.54878 20 8.1243 20 10C20 11.8757 19.9008 13.4512 19.6122 14.7499C19.321 16.06 18.824 17.1488 17.9864 17.9864C17.1488 18.824 16.06 19.321 14.7499 19.6122C13.4512 19.9008 11.8757 20 10 20C8.1243 20 6.54878 19.9008 5.25007 19.6122C3.94002 19.321 2.85116 18.824 2.01358 17.9864C1.176 17.1488 0.67897 16.06 0.38782 14.7499C0.0992 13.4512 0 11.8757 0 10C0 8.1243 0.0992 6.54878 0.38782 5.25007C0.67897 3.94002 1.176 2.85116 2.01358 2.01358C2.85116 1.176 3.94002 0.67897 5.25007 0.38782Z" fill="#323232"/>
</svg>
