<svg width="25" height="25" viewBox="0 0 25 25" fill="none" xmlns="http://www.w3.org/2000/svg">
<g clip-path="url(#clip0_128_5116)">
<path fill-rule="evenodd" clip-rule="evenodd" d="M12.5 1.23061e-05C15.3931 -0.000814657 18.1969 1.00157 20.4337 2.83635C22.6705 4.67113 24.2019 7.22477 24.7669 10.0621C25.3319 12.8995 24.8955 15.8449 23.5322 18.3966C22.1688 20.9483 19.9629 22.9483 17.2902 24.0557C14.6175 25.1632 11.6435 25.3096 8.87494 24.4701C6.10638 23.6305 3.71461 21.8569 2.1072 19.4515C0.499783 17.0461 -0.223808 14.1577 0.059728 11.2786C0.343264 8.39949 1.61638 5.70776 3.66214 3.66212C4.82114 2.49926 6.19865 1.57705 7.7154 0.948559C9.23216 0.320069 10.8582 -0.0022957 12.5 1.23061e-05ZM8.38219 10.9294H8.58564V10.2661C8.58438 9.20539 8.99251 8.18507 9.72496 7.41782C10.0796 7.04003 10.5079 6.73893 10.9835 6.5331C11.459 6.32727 11.9717 6.22108 12.4899 6.22108C13.008 6.22108 13.5207 6.32727 13.9962 6.5331C14.4718 6.73893 14.9001 7.04003 15.2547 7.41782C15.9872 8.18507 16.3953 9.20539 16.3941 10.2661V10.9294H16.6077C16.7768 10.9294 16.939 10.9964 17.0587 11.1158C17.1784 11.2351 17.246 11.3971 17.2465 11.5662V17.863C17.246 18.0322 17.1785 18.1944 17.0588 18.3141C16.9391 18.4338 16.777 18.5013 16.6077 18.5018H8.38219C8.21311 18.5013 8.05114 18.4337 7.93178 18.314C7.81241 18.1942 7.74539 18.032 7.74539 17.863V11.5662C7.74539 11.3973 7.81248 11.2353 7.9319 11.1159C8.05133 10.9965 8.2133 10.9294 8.38219 10.9294ZM9.80634 10.9294H15.1978V10.2661C15.2008 9.51679 14.9144 8.79522 14.3982 8.25197C14.1555 7.99134 13.8617 7.7835 13.5351 7.64139C13.2085 7.49927 12.8562 7.42593 12.5 7.42593C12.1439 7.42593 11.7915 7.49927 11.465 7.64139C11.1384 7.7835 10.8446 7.99134 10.6018 8.25197C10.085 8.79476 9.79842 9.51663 9.80227 10.2661V10.9294H9.80634ZM12.0036 15.0004L11.3322 16.7379H13.6678L13.0575 14.978C13.3042 14.8529 13.501 14.6477 13.6158 14.3961C13.7306 14.1444 13.7566 13.8613 13.6894 13.593C13.6222 13.3246 13.4659 13.0871 13.2461 12.9192C13.0263 12.7514 12.756 12.6631 12.4794 12.669C12.2029 12.6748 11.9365 12.7744 11.724 12.9514C11.5115 13.1284 11.3654 13.3724 11.3096 13.6433C11.2538 13.9142 11.2917 14.196 11.4171 14.4426C11.5424 14.6892 11.7478 14.8858 11.9995 15.0004H12.0036Z" fill="#292D32"/>
</g>
<defs>
<clipPath id="clip0_128_5116">
<rect width="25" height="25" fill="white"/>
</clipPath>
</defs>
</svg>
