<svg width="15" height="15" viewBox="0 0 15 15" fill="none" xmlns="http://www.w3.org/2000/svg">
<path d="M7.5 4.375C5.775 4.375 4.375 5.775 4.375 7.5C4.375 9.225 5.775 10.625 7.5 10.625C9.225 10.625 10.625 9.225 10.625 7.5C10.625 5.775 9.225 4.375 7.5 4.375ZM7.5 1.25C4.05 1.25 1.25 4.05 1.25 7.5C1.25 10.95 4.05 13.75 7.5 13.75C10.95 13.75 13.75 10.95 13.75 7.5C13.75 4.05 10.95 1.25 7.5 1.25ZM7.5 12.5C4.7375 12.5 2.5 10.2625 2.5 7.5C2.5 4.7375 4.7375 2.5 7.5 2.5C10.2625 2.5 12.5 4.7375 12.5 7.5C12.5 10.2625 10.2625 12.5 7.5 12.5Z" fill="#050247"/>
</svg>
