<svg width="20" height="20" viewBox="0 0 20 20" fill="none" xmlns="http://www.w3.org/2000/svg">
<path fill-rule="evenodd" clip-rule="evenodd" d="M8.33333 4.16667C6.03215 4.16667 4.16667 6.03215 4.16667 8.33333C4.16667 10.6345 6.03215 12.5 8.33333 12.5C9.48417 12.5 10.5247 12.0346 11.2796 11.2796C12.0346 10.5247 12.5 9.48417 12.5 8.33333C12.5 6.03215 10.6345 4.16667 8.33333 4.16667ZM2.5 8.33333C2.5 5.11167 5.11167 2.5 8.33333 2.5C11.555 2.5 14.1667 5.11167 14.1667 8.33333C14.1667 9.64325 13.7342 10.8532 13.0052 11.8267L17.2559 16.0774C17.5813 16.4028 17.5813 16.9305 17.2559 17.2559C16.9305 17.5813 16.4028 17.5813 16.0774 17.2559L11.8267 13.0052C10.8532 13.7342 9.64325 14.1667 8.33333 14.1667C5.11167 14.1667 2.5 11.555 2.5 8.33333Z" fill="#BAC4C9"/>
</svg>
