<svg width="35" height="35" viewBox="0 0 35 35" fill="none" xmlns="http://www.w3.org/2000/svg">
<path fill-rule="evenodd" clip-rule="evenodd" d="M19.25 12.25C19.25 11.2835 18.4665 10.5 17.5 10.5C16.5335 10.5 15.75 11.2835 15.75 12.25V15.75H12.25C11.2835 15.75 10.5 16.5335 10.5 17.5C10.5 18.4665 11.2835 19.25 12.25 19.25H15.75V22.75C15.75 23.7165 16.5335 24.5 17.5 24.5C18.4665 24.5 19.25 23.7165 19.25 22.75V19.25H22.75C23.7165 19.25 24.5 18.4665 24.5 17.5C24.5 16.5335 23.7165 15.75 22.75 15.75H19.25V12.25ZM9.18762 0.678685C11.4604 0.1736 14.2175 0 17.5 0C20.7825 0 23.5396 0.1736 25.8123 0.678685C28.105 1.1882 30.0104 2.058 31.4762 3.52376C32.942 4.98953 33.8117 6.89504 34.3214 9.18762C34.8264 11.4604 35 14.2175 35 17.5C35 20.7825 34.8264 23.5396 34.3214 25.8123C33.8117 28.105 32.942 30.0104 31.4762 31.4762C30.0104 32.942 28.105 33.8117 25.8123 34.3214C23.5396 34.8264 20.7825 35 17.5 35C14.2175 35 11.4604 34.8264 9.18762 34.3214C6.89504 33.8117 4.98953 32.942 3.52376 31.4762C2.058 30.0104 1.1882 28.105 0.678685 25.8123C0.1736 23.5396 0 20.7825 0 17.5C0 14.2175 0.1736 11.4604 0.678685 9.18762C1.1882 6.89504 2.058 4.98953 3.52376 3.52376C4.98953 2.058 6.89504 1.1882 9.18762 0.678685Z" fill="#050247"/>
</svg>
