<svg width="50" height="50" viewBox="0 0 50 50" fill="none" xmlns="http://www.w3.org/2000/svg">
<path opacity="0.4" d="M4.16699 29.4977V25.831C4.16699 23.6643 5.93783 21.8728 8.12533 21.8728C11.8962 21.8728 13.4378 19.2061 11.542 15.9353C10.4587 14.0603 11.1045 11.6228 13.0003 10.5394L16.6045 8.47693C18.2503 7.49776 20.3753 8.08109 21.3545 9.72693L21.5837 10.1228C23.4587 13.3936 26.542 13.3936 28.4378 10.1228L28.667 9.72693C29.6462 8.08109 31.7712 7.49776 33.417 8.47693L37.0212 10.5394C38.917 11.6228 39.5628 14.0603 38.4795 15.9353C36.5837 19.2061 38.1253 21.8728 41.8962 21.8728C44.0628 21.8728 45.8545 23.6435 45.8545 25.831V29.4977C45.8545 31.6643 44.0837 33.456 41.8962 33.456C38.1253 33.456 36.5837 36.1227 38.4795 39.3935C39.5628 41.2893 38.917 43.706 37.0212 44.7893L33.417 46.8518C31.7712 47.831 29.6462 47.2477 28.667 45.6018L28.4378 45.206C26.5628 41.9352 23.4795 41.9352 21.5837 45.206L21.3545 45.6018C20.3753 47.2477 18.2503 47.831 16.6045 46.8518L13.0003 44.7893C11.1045 43.706 10.4587 41.2685 11.542 39.3935C13.4378 36.1227 11.8962 33.456 8.12533 33.456C5.93783 33.456 4.16699 31.6643 4.16699 29.4977Z" fill="#604ADB"/>
<path d="M25.0003 33.5416C28.7397 33.5416 31.7712 30.5101 31.7712 26.7708C31.7712 23.0314 28.7397 19.9999 25.0003 19.9999C21.261 19.9999 18.2295 23.0314 18.2295 26.7708C18.2295 30.5101 21.261 33.5416 25.0003 33.5416Z" fill="#1E1E1E"/>
</svg>
