<svg width="20" height="20" viewBox="0 0 20 20" fill="none" xmlns="http://www.w3.org/2000/svg">
<g clip-path="url(#clip0_128_5114)">
<path d="M11.5023 1.16553C11.9863 1.31436 12.448 1.51787 12.8808 1.76905C12.4601 1.91972 12.057 2.11594 11.6789 2.3542C11.4488 2.25928 11.2117 2.1792 10.9683 2.11553C10.7933 2.06983 10.6461 1.93623 10.5922 1.74991C10.5215 1.50616 10.3668 1.32686 10.1742 1.21358C10.0043 1.1128 9.79842 1.06202 9.59139 1.06202C9.38709 1.05967 9.18319 1.11084 9.01366 1.21202C8.82811 1.32256 8.67889 1.49952 8.60975 1.74248C8.55741 1.91944 8.41522 2.06553 8.22342 2.11202C7.17186 2.36827 6.23241 2.93936 5.5078 3.71084C4.78006 4.48545 4.26912 5.46319 4.07576 6.52998C3.9453 7.25147 3.96209 8.15928 3.97694 8.99405L3.98866 9.76709C3.98866 11.0003 3.77381 12.0378 3.29647 12.9515C2.83905 13.8265 2.1492 14.5702 1.18631 15.2448L17.9629 15.2452C17.2383 14.7409 16.6687 14.1956 16.2367 13.5843C16.6101 13.5054 16.9715 13.3929 17.3168 13.2491C17.6773 13.6866 18.1363 14.0878 18.7035 14.4675C18.9238 14.6144 19.0566 14.8171 19.1156 15.0343L19.1238 15.069C19.1637 15.2421 19.1543 15.4237 19.1035 15.5913C19.0492 15.7694 18.9461 15.9355 18.8051 16.0597L18.7582 16.0964C18.5945 16.2241 18.3859 16.3042 18.1465 16.305L12.8219 16.3062L12.8183 16.3202C12.1722 20.0921 6.95506 20.0819 6.32655 16.3077L1.00389 16.3085C0.726546 16.3085 0.491781 16.2034 0.318343 16.0394C0.181234 15.9112 0.0855306 15.7468 0.0367025 15.573L0.0281087 15.5374C-0.0109538 15.3733 -0.0101725 15.1972 0.0359212 15.03C0.0988119 14.8003 0.241781 14.5901 0.471078 14.4468C1.35076 13.8499 1.96717 13.2069 2.35662 12.4608C2.74842 11.7108 2.92459 10.8315 2.92459 9.76709L2.91717 9.01006C2.90194 8.12608 2.88397 7.16436 3.03201 6.34288C3.26287 5.06866 3.87069 3.90459 4.73475 2.98389C5.53241 2.13506 6.55155 1.49014 7.69725 1.15616C7.86952 0.780765 8.14373 0.495609 8.46873 0.301859C8.80623 0.100296 9.20037 -0.000484948 9.59139 -9.43234e-05C9.97967 -0.00204745 10.3734 0.0991244 10.7129 0.299124C11.0461 0.494828 11.3258 0.784281 11.5023 1.16553ZM16.3863 5.14639C16.3242 5.10381 16.2527 5.08428 16.1808 5.09912C16.1097 5.1128 16.0476 5.15108 16.0051 5.2128L15.7617 5.55577C15.5972 5.48233 15.3875 5.43428 15.2094 5.4085L15.1336 4.96006C15.1187 4.88467 15.0805 4.82725 15.0234 4.78389C14.9617 4.74131 14.8953 4.72725 14.8187 4.74131L14.257 4.8417C14.1851 4.85577 14.1281 4.88936 14.0808 4.95108C14.0379 5.01319 14.0187 5.07998 14.0328 5.15616L14.1043 5.56592C13.9316 5.63819 13.7601 5.74327 13.6137 5.86123L13.2324 5.59873C13.1703 5.55577 13.1043 5.53702 13.0324 5.55108C12.9609 5.56592 12.8992 5.6042 12.8562 5.66592L12.532 6.12803C12.4894 6.18975 12.4707 6.26084 12.4847 6.33272C12.4984 6.40889 12.5367 6.46592 12.5992 6.50889L12.9418 6.75225C12.8695 6.91514 12.8203 7.12725 12.7949 7.30459L12.3469 7.38038C12.2703 7.39522 12.2133 7.43311 12.1703 7.49014C12.1273 7.55186 12.1137 7.61866 12.1273 7.69483L12.2273 8.25694C12.2418 8.32881 12.275 8.38545 12.3371 8.43311C12.3988 8.47608 12.466 8.49561 12.5422 8.48077L12.9515 8.40967C13.0273 8.58858 13.1308 8.7503 13.2469 8.90499L12.9847 9.28116C12.9418 9.34327 12.923 9.40967 12.9375 9.48116C12.9515 9.55303 12.9898 9.61436 13.0519 9.65733L13.5187 9.98623C13.5805 10.0292 13.6519 10.0433 13.7226 10.0292C13.7945 10.0151 13.8562 9.98155 13.9047 9.91944L14.1469 9.57178C14.3137 9.64561 14.5191 9.6917 14.7004 9.71983L14.7762 10.1675C14.7898 10.2437 14.8281 10.3007 14.8855 10.3437C14.9476 10.3862 15.0144 10.4011 15.0906 10.3862L15.6527 10.2866C15.7246 10.2718 15.7808 10.2386 15.8289 10.1765C15.8715 10.1147 15.8902 10.0483 15.8762 9.97217L15.8055 9.56241C15.9859 9.48623 16.1437 9.38389 16.3 9.2667L16.6769 9.52881C16.739 9.57178 16.8051 9.59053 16.8816 9.57647C16.9578 9.56241 17.0148 9.52452 17.0578 9.46163L17.3863 8.99483C17.4071 8.9656 17.4216 8.93242 17.429 8.89734C17.4364 8.86226 17.4365 8.82604 17.4293 8.79092C17.4148 8.71905 17.382 8.65733 17.3199 8.60928L16.9722 8.37139C17.0445 8.20811 17.0937 7.99561 17.1191 7.81905L17.5672 7.74288C17.6437 7.72842 17.7008 7.69014 17.7437 7.63272C17.7867 7.571 17.8015 7.50459 17.7867 7.42842L17.6867 6.86592C17.6722 6.79483 17.639 6.73741 17.5769 6.69014C17.5152 6.64678 17.448 6.62803 17.3719 6.64209L16.9625 6.71397C16.8836 6.53584 16.7894 6.3753 16.6672 6.22334L16.9293 5.8417C16.9722 5.78038 16.991 5.71319 16.9765 5.64248C16.9625 5.57061 16.9242 5.5085 16.8621 5.46514L16.4 5.14209L16.3863 5.14639ZM14.9578 6.3628C15.6211 6.3628 16.1586 6.90069 16.1586 7.56397C16.1586 8.22725 15.6211 8.76475 14.9578 8.76475C14.2945 8.76475 13.7562 8.22725 13.7562 7.56397C13.7562 6.90069 14.2945 6.3628 14.9578 6.3628ZM14.9566 2.521C16.3496 2.521 17.6105 3.08584 18.5226 3.99795C19.4347 4.91045 20 6.17139 20 7.56397C20 8.95577 19.4347 10.2179 18.5226 11.13C17.6105 12.0421 16.3484 12.6073 14.9566 12.6073C13.5648 12.6073 12.3031 12.0421 11.3906 11.13C10.4785 10.2179 9.91366 8.95577 9.91366 7.56397C9.91366 6.17139 10.4785 4.91045 11.3906 3.99795C12.3031 3.08584 13.5648 2.521 14.9566 2.521ZM17.9117 4.60889C17.1562 3.85342 16.1109 3.38506 14.9566 3.38506C13.8027 3.38506 12.757 3.85342 12.0015 4.60889C11.2461 5.36436 10.7777 6.41006 10.7777 7.56397C10.7777 8.71788 11.2461 9.76358 12.0015 10.519C12.757 11.2745 13.8027 11.7429 14.9566 11.7429C16.1109 11.7429 17.1562 11.2745 17.9117 10.519C18.6672 9.76358 19.1355 8.71788 19.1355 7.56397C19.1355 6.41006 18.6672 5.36436 17.9117 4.60889Z" fill="#292D32"/>
</g>
<defs>
<clipPath id="clip0_128_5114">
<rect width="20" height="19.1437" fill="white"/>
</clipPath>
</defs>
</svg>
