<svg width="25" height="25" viewBox="0 0 25 25" fill="none" xmlns="http://www.w3.org/2000/svg">
<path opacity="0.4" d="M2.08325 14.7488V12.9155C2.08325 11.8322 2.96867 10.9364 4.06242 10.9364C5.94784 10.9364 6.71867 9.60305 5.77075 7.96764C5.22909 7.03014 5.552 5.81139 6.49992 5.26972L8.302 4.23847C9.12492 3.74889 10.1874 4.04055 10.677 4.86347L10.7916 5.06139C11.7291 6.6968 13.2708 6.6968 14.2187 5.06139L14.3333 4.86347C14.8228 4.04055 15.8853 3.74889 16.7083 4.23847L18.5103 5.26972C19.4583 5.81139 19.7812 7.03014 19.2395 7.96764C18.2916 9.60305 19.0624 10.9364 20.9478 10.9364C22.0312 10.9364 22.927 11.8218 22.927 12.9155V14.7488C22.927 15.8322 22.0416 16.728 20.9478 16.728C19.0624 16.728 18.2916 18.0613 19.2395 19.6968C19.7812 20.6447 19.4583 21.853 18.5103 22.3947L16.7083 23.4259C15.8853 23.9155 14.8228 23.6238 14.3333 22.8009L14.2187 22.603C13.2812 20.9676 11.7395 20.9676 10.7916 22.603L10.677 22.8009C10.1874 23.6238 9.12492 23.9155 8.302 23.4259L6.49992 22.3947C5.552 21.853 5.22909 20.6343 5.77075 19.6968C6.71867 18.0613 5.94784 16.728 4.06242 16.728C2.96867 16.728 2.08325 15.8322 2.08325 14.7488Z" fill="#1E1E1E"/>
<path d="M12.4999 16.7708C14.3696 16.7708 15.8853 15.2551 15.8853 13.3854C15.8853 11.5157 14.3696 9.99997 12.4999 9.99997C10.6302 9.99997 9.1145 11.5157 9.1145 13.3854C9.1145 15.2551 10.6302 16.7708 12.4999 16.7708Z" fill="#050247"/>
</svg>
