<svg width="20" height="20" viewBox="0 0 20 20" fill="none" xmlns="http://www.w3.org/2000/svg">
<g clip-path="url(#clip0_140_3497)">
<path d="M10 0C12.7613 0 15.2613 1.11953 17.0711 2.92891C18.8809 4.73867 20 7.23867 20 10C20 12.7609 18.8805 15.2613 17.0711 17.0711C15.2613 18.8809 12.7613 20 10 20C7.23867 20 4.73867 18.8805 2.92891 17.0711C1.11953 15.2613 0 12.7613 0 10C0 7.23867 1.11914 4.73867 2.92891 2.92891C4.73867 1.11953 7.23906 0 10 0ZM9.28437 10.366C9.08945 10.193 8.84492 10.0434 8.81172 9.68359L8.79102 9.68398C8.74258 9.6832 8.69609 9.67227 8.65234 9.64727C8.58281 9.60742 8.53359 9.53945 8.50039 9.4625C8.43047 9.30117 8.375 8.87695 8.55156 8.75586L8.51836 8.73398L8.51445 8.68672C8.50781 8.60156 8.50625 8.49805 8.5043 8.38945C8.49805 7.99063 8.48984 7.50742 8.16914 7.41055L8.03164 7.36875L8.12226 7.25664C8.38125 6.93633 8.65195 6.65664 8.92539 6.44141C9.23398 6.19844 9.54805 6.03633 9.85547 5.98945C10.1711 5.9418 10.477 6.01445 10.7598 6.24258C10.843 6.31016 10.9242 6.39102 11.0023 6.48633C11.3039 6.51523 11.5504 6.67773 11.7266 6.90938C11.8316 7.04805 11.9113 7.21133 11.9621 7.38555C12.0129 7.55898 12.0348 7.74297 12.0254 7.92461C12.0082 8.25 11.8895 8.56758 11.6496 8.79922C11.6918 8.80039 11.7316 8.81016 11.7668 8.82891C11.9004 8.90078 11.9047 9.05586 11.8695 9.18633C11.8348 9.29531 11.7906 9.42148 11.7492 9.52773C11.6984 9.6707 11.6246 9.69766 11.4816 9.68242C11.4746 10.032 11.2188 10.1754 11 10.3797C11.5344 11.3777 13.8012 11.1316 13.8012 13.1156H6.47734C6.47734 11.1316 8.6918 11.4043 9.2875 10.3668L9.28437 10.366ZM5.72187 10.4801C5.69228 10.4483 5.66475 10.4146 5.63945 10.3793C5.57891 10.2961 5.52188 10.209 5.46719 10.1219L5.19375 9.68672C5.08984 9.53555 5.03555 9.39727 5.03555 9.2875C5.03555 9.17812 5.09727 9.03555 5.22109 9.00352C5.21094 8.83984 5.20469 8.67344 5.20469 8.50898C5.20469 8.41133 5.20664 8.31289 5.21016 8.21641C5.21563 8.15547 5.22656 8.09492 5.24297 8.03594C5.31896 7.78814 5.48473 7.57765 5.70781 7.4457C5.78684 7.39596 5.8714 7.35558 5.95977 7.32539C6.11875 7.26523 6.04219 7.02266 6.21719 7.01914C6.62617 7.0082 7.29844 7.35859 7.56055 7.64258C7.72782 7.82714 7.82296 8.06582 7.82852 8.31484L7.81211 9.03086C7.88477 9.04883 7.94141 9.10547 7.95977 9.17813C7.98125 9.26602 7.95977 9.38594 7.8832 9.55547C7.8832 9.56094 7.87734 9.56094 7.87734 9.5668L7.56562 10.0805C7.49492 10.1965 7.42187 10.3152 7.33984 10.4238C7.24258 10.5543 7.1625 10.5309 7.2457 10.6555C7.31523 10.7512 7.39609 10.8281 7.48516 10.893C6.84023 11.2109 6.25977 11.643 6.13398 12.5895H3.69727C3.69727 10.9574 5.15234 11.4758 5.74844 10.6555C5.81719 10.5547 5.79883 10.5621 5.72187 10.4801ZM12.8629 10.5535C12.8344 10.523 12.8078 10.4902 12.7836 10.4562C12.725 10.3758 12.6699 10.2922 12.6172 10.2082L12.3531 9.78789C12.2898 9.69609 12.2457 9.60898 12.2219 9.53086C12.2402 9.47852 12.2582 9.42617 12.2762 9.37187C12.284 9.35273 12.291 9.33281 12.2961 9.3125C12.3102 9.26133 12.3203 9.20742 12.3262 9.15156C12.3422 9.1418 12.3602 9.13398 12.3797 9.12891C12.3699 8.9707 12.3637 8.81016 12.3637 8.65117C12.3637 8.60234 12.3645 8.55313 12.3652 8.5043C12.4152 8.35742 12.4457 8.20391 12.4586 8.04883C12.5441 7.87344 12.6797 7.72578 12.8492 7.625C12.9254 7.57734 13.0074 7.53789 13.0926 7.50898C13.2461 7.45117 13.1719 7.2168 13.341 7.21328C13.7355 7.20312 14.3844 7.54102 14.6375 7.81523C14.7987 7.99353 14.8904 8.22378 14.8961 8.46406L14.8801 9.15508C14.95 9.17227 15.0051 9.22695 15.0227 9.29727C15.0437 9.38203 15.0227 9.49766 14.9484 9.66133C14.9484 9.6668 14.9434 9.6668 14.9434 9.67227L14.6426 10.168C14.5742 10.2801 14.5039 10.3945 14.4246 10.4996C14.3305 10.6254 14.2531 10.6027 14.3332 10.723C14.9094 11.5145 16.3027 11.0152 16.3027 12.5895H14.157C14.0266 11.6254 13.4172 11.1891 12.7551 10.8687C12.8043 10.8254 12.8492 10.7773 12.8887 10.723C12.9547 10.6258 12.9375 10.6328 12.8629 10.5535ZM10.7434 1.37227V2.85938H9.44062V1.35859C7.27227 1.49687 5.3207 2.4332 3.87695 3.87695C2.40781 5.34609 1.46406 7.34063 1.35195 9.55508H3.11758V10.8574H1.38281C1.58398 12.9063 2.49961 14.7461 3.87695 16.123C5.3207 17.5672 7.27227 18.5035 9.44062 18.6414V17.3664H10.7434V18.6277C12.8379 18.4496 14.7203 17.5258 16.123 16.123C17.5004 14.7461 18.416 12.9063 18.6172 10.8574H17.0664V9.55508H18.648C18.5359 7.34063 17.5922 5.34609 16.123 3.87695C14.7203 2.47422 12.8379 1.55039 10.7434 1.37227Z" fill="#323232"/>
</g>
<defs>
<clipPath id="clip0_140_3497">
<rect width="20" height="20" fill="white"/>
</clipPath>
</defs>
</svg>
