<svg width="25" height="25" viewBox="0 0 25 25" fill="none" xmlns="http://www.w3.org/2000/svg">
<path d="M12.5001 12.5C15.3765 12.5 17.7084 10.1681 17.7084 7.29165C17.7084 4.41517 15.3765 2.08331 12.5001 2.08331C9.6236 2.08331 7.29175 4.41517 7.29175 7.29165C7.29175 10.1681 9.6236 12.5 12.5001 12.5Z" fill="#292D32"/>
<path opacity="0.4" d="M12.5003 15.1042C7.28152 15.1042 3.03149 18.6042 3.03149 22.9167C3.03149 23.2084 3.26066 23.4375 3.55233 23.4375H21.4482C21.7399 23.4375 21.969 23.2084 21.969 22.9167C21.969 18.6042 17.719 15.1042 12.5003 15.1042Z" fill="#292D32"/>
<path d="M22.3219 15.3543C21.3844 14.4168 20.6448 14.7189 20.0094 15.3543L16.3218 19.0418C16.176 19.1876 16.0407 19.4584 16.0094 19.6564L15.8115 21.0626C15.7386 21.573 16.0928 21.9272 16.6032 21.8543L18.0093 21.6564C18.2072 21.6251 18.4886 21.4897 18.624 21.3439L22.3114 17.6564C22.9572 17.0314 23.2594 16.2918 22.3219 15.3543Z" fill="#292D32"/>
</svg>
