<svg width="50" height="56" viewBox="0 0 50 56" fill="none" xmlns="http://www.w3.org/2000/svg">
<path fill-rule="evenodd" clip-rule="evenodd" d="M33.2782 4.33882L21.8545 11.8482L35.2584 13.8511L46.2802 6.28832L33.2782 4.33882ZM35.897 26.6351C43.2188 26.6351 49.1545 33.1643 49.1545 41.2182C49.1545 49.2722 43.2188 55.8014 35.897 55.8014C28.5752 55.8014 22.6396 49.2722 22.6396 41.2182C22.6396 33.1643 28.5752 26.6351 35.897 26.6351ZM33.7851 35.8511C33.7802 35.166 33.7228 34.677 34.496 34.689L36.998 34.7217C37.8059 34.7162 38.0208 34.9983 38.0099 35.8304V38.9365H40.8129C41.4366 38.9311 41.8812 38.8679 41.8703 39.7185L41.8396 42.4696C41.8436 43.3583 41.5881 43.5936 40.8317 43.5838H38.0099V46.6866C38.0208 47.5198 37.8059 47.8008 36.998 47.7954L34.496 47.828C33.7228 47.8422 33.7802 47.3521 33.7851 46.667V43.5838H30.9614C30.2059 43.5936 29.9485 43.3583 29.9535 42.4696L29.9238 39.7185C29.9129 38.8679 30.3574 38.9311 30.9802 38.9365H33.7851V35.8511ZM20.2802 13.7367L20.2713 29.1705L15.1762 25.3543L10.0822 28.5203L10.6861 12.3024L1.9198 10.9922V45.0791L19.6376 47.5993C19.8871 48.3715 20.1792 49.1219 20.5139 49.8451L0.919802 47.058C0.408911 47.0352 0 46.5701 0 46.0027V9.78654C0.0267327 9.34545 0.187129 9.03614 0.566337 8.82703L18.0663 0.0923805C18.2228 0.0139646 18.4158 -0.0176195 18.5871 0.00960819L49.1 4.58713C49.604 4.65139 49.9495 5.10664 49.9495 5.67515V5.67733L50 30.5929C49.4337 29.6715 48.4584 28.3842 48.0267 27.5684V7.57565L36.5604 15.7363V22.2503C35.9203 22.2243 35.2794 22.2374 34.6406 22.2895V15.8834L20.2802 13.7367ZM12.2089 10.4062L23.3149 2.84456L18.604 2.13773L4.3802 9.23545L12.2089 10.4062Z" fill="#604ADB"/>
</svg>
