<svg width="8" height="8" viewBox="0 0 8 8" fill="none" xmlns="http://www.w3.org/2000/svg">
<path d="M0.326743 7.18013L1.92323 4.84743L3.61278 6.47701C3.8961 6.7169 4.17735 6.54112 4.25179 6.41497L7.05599 2.39686L7.15732 3.74105C7.17387 3.96233 7.35999 4.13191 7.57713 4.13191C7.82529 4.13191 8.01554 3.91063 7.999 3.67695L7.82115 1.31323C7.80254 1.08162 7.60194 0.905836 7.36826 0.924448L5.00454 1.1023C4.77293 1.11884 4.59715 1.3215 4.61576 1.55519C4.6323 1.7868 4.83497 1.96051 5.06865 1.94397L6.41285 1.84264L3.8444 5.52366L2.15071 3.89202C2.04731 3.77414 1.73711 3.66867 1.50964 3.95819L0 6.16267V7.36004C0.126148 7.35384 0.250227 7.2918 0.326743 7.18013Z" fill="#CF0505"/>
</svg>
